<mxfile host="Electron" agent="Mozilla/5.0 (Windows NT 10.0; Win64; x64) AppleWebKit/537.36 (KHTML, like Gecko) draw.io/27.0.9 Chrome/134.0.6998.205 Electron/35.4.0 Safari/537.36" version="27.0.9">
  <diagram name="Page-1" id="h8WgiyQstKJDAHsQ-lrB">
    <mxGraphModel dx="4392" dy="2103" grid="1" gridSize="10" guides="1" tooltips="1" connect="1" arrows="1" fold="1" page="1" pageScale="1" pageWidth="827" pageHeight="1169" math="0" shadow="0">
      <root>
        <mxCell id="0" />
        <mxCell id="1" parent="0" />
        <mxCell id="t7g00nan9s0jNHVQrBZP-401" value="User" style="swimlane;fontStyle=1;align=center;verticalAlign=top;childLayout=stackLayout;horizontal=1;startSize=27.555555555555557;horizontalStack=0;resizeParent=1;resizeParentMax=0;resizeLast=0;collapsible=0;marginBottom=0;" parent="1" vertex="1">
          <mxGeometry x="1315" y="1126" width="195" height="511.55555555555554" as="geometry" />
        </mxCell>
        <mxCell id="t7g00nan9s0jNHVQrBZP-402" value="+String userId" style="text;strokeColor=none;fillColor=none;align=left;verticalAlign=top;spacingLeft=4;spacingRight=4;overflow=hidden;rotatable=0;points=[[0,0.5],[1,0.5]];portConstraint=eastwest;" parent="t7g00nan9s0jNHVQrBZP-401" vertex="1">
          <mxGeometry y="27.555555555555557" width="195" height="28" as="geometry" />
        </mxCell>
        <mxCell id="t7g00nan9s0jNHVQrBZP-403" value="+String email" style="text;strokeColor=none;fillColor=none;align=left;verticalAlign=top;spacingLeft=4;spacingRight=4;overflow=hidden;rotatable=0;points=[[0,0.5],[1,0.5]];portConstraint=eastwest;" parent="t7g00nan9s0jNHVQrBZP-401" vertex="1">
          <mxGeometry y="55.55555555555556" width="195" height="28" as="geometry" />
        </mxCell>
        <mxCell id="t7g00nan9s0jNHVQrBZP-404" value="+String password" style="text;strokeColor=none;fillColor=none;align=left;verticalAlign=top;spacingLeft=4;spacingRight=4;overflow=hidden;rotatable=0;points=[[0,0.5],[1,0.5]];portConstraint=eastwest;" parent="t7g00nan9s0jNHVQrBZP-401" vertex="1">
          <mxGeometry y="83.55555555555556" width="195" height="28" as="geometry" />
        </mxCell>
        <mxCell id="t7g00nan9s0jNHVQrBZP-405" value="+String firstName" style="text;strokeColor=none;fillColor=none;align=left;verticalAlign=top;spacingLeft=4;spacingRight=4;overflow=hidden;rotatable=0;points=[[0,0.5],[1,0.5]];portConstraint=eastwest;" parent="t7g00nan9s0jNHVQrBZP-401" vertex="1">
          <mxGeometry y="111.55555555555556" width="195" height="28" as="geometry" />
        </mxCell>
        <mxCell id="t7g00nan9s0jNHVQrBZP-406" value="+String lastName" style="text;strokeColor=none;fillColor=none;align=left;verticalAlign=top;spacingLeft=4;spacingRight=4;overflow=hidden;rotatable=0;points=[[0,0.5],[1,0.5]];portConstraint=eastwest;" parent="t7g00nan9s0jNHVQrBZP-401" vertex="1">
          <mxGeometry y="139.55555555555554" width="195" height="28" as="geometry" />
        </mxCell>
        <mxCell id="t7g00nan9s0jNHVQrBZP-407" value="+String phoneNumber" style="text;strokeColor=none;fillColor=none;align=left;verticalAlign=top;spacingLeft=4;spacingRight=4;overflow=hidden;rotatable=0;points=[[0,0.5],[1,0.5]];portConstraint=eastwest;" parent="t7g00nan9s0jNHVQrBZP-401" vertex="1">
          <mxGeometry y="167.55555555555554" width="195" height="28" as="geometry" />
        </mxCell>
        <mxCell id="t7g00nan9s0jNHVQrBZP-408" value="+Date dateOfBirth" style="text;strokeColor=none;fillColor=none;align=left;verticalAlign=top;spacingLeft=4;spacingRight=4;overflow=hidden;rotatable=0;points=[[0,0.5],[1,0.5]];portConstraint=eastwest;" parent="t7g00nan9s0jNHVQrBZP-401" vertex="1">
          <mxGeometry y="195.55555555555554" width="195" height="28" as="geometry" />
        </mxCell>
        <mxCell id="t7g00nan9s0jNHVQrBZP-409" value="+String gender" style="text;strokeColor=none;fillColor=none;align=left;verticalAlign=top;spacingLeft=4;spacingRight=4;overflow=hidden;rotatable=0;points=[[0,0.5],[1,0.5]];portConstraint=eastwest;" parent="t7g00nan9s0jNHVQrBZP-401" vertex="1">
          <mxGeometry y="223.55555555555554" width="195" height="28" as="geometry" />
        </mxCell>
        <mxCell id="t7g00nan9s0jNHVQrBZP-410" value="+String address" style="text;strokeColor=none;fillColor=none;align=left;verticalAlign=top;spacingLeft=4;spacingRight=4;overflow=hidden;rotatable=0;points=[[0,0.5],[1,0.5]];portConstraint=eastwest;" parent="t7g00nan9s0jNHVQrBZP-401" vertex="1">
          <mxGeometry y="251.55555555555554" width="195" height="28" as="geometry" />
        </mxCell>
        <mxCell id="t7g00nan9s0jNHVQrBZP-411" value="+String profileImage" style="text;strokeColor=none;fillColor=none;align=left;verticalAlign=top;spacingLeft=4;spacingRight=4;overflow=hidden;rotatable=0;points=[[0,0.5],[1,0.5]];portConstraint=eastwest;" parent="t7g00nan9s0jNHVQrBZP-401" vertex="1">
          <mxGeometry y="279.55555555555554" width="195" height="28" as="geometry" />
        </mxCell>
        <mxCell id="t7g00nan9s0jNHVQrBZP-412" value="+Date createdAt" style="text;strokeColor=none;fillColor=none;align=left;verticalAlign=top;spacingLeft=4;spacingRight=4;overflow=hidden;rotatable=0;points=[[0,0.5],[1,0.5]];portConstraint=eastwest;" parent="t7g00nan9s0jNHVQrBZP-401" vertex="1">
          <mxGeometry y="307.55555555555554" width="195" height="28" as="geometry" />
        </mxCell>
        <mxCell id="t7g00nan9s0jNHVQrBZP-413" value="+Date updatedAt" style="text;strokeColor=none;fillColor=none;align=left;verticalAlign=top;spacingLeft=4;spacingRight=4;overflow=hidden;rotatable=0;points=[[0,0.5],[1,0.5]];portConstraint=eastwest;" parent="t7g00nan9s0jNHVQrBZP-401" vertex="1">
          <mxGeometry y="335.55555555555554" width="195" height="28" as="geometry" />
        </mxCell>
        <mxCell id="t7g00nan9s0jNHVQrBZP-414" value="+Boolean isActive" style="text;strokeColor=none;fillColor=none;align=left;verticalAlign=top;spacingLeft=4;spacingRight=4;overflow=hidden;rotatable=0;points=[[0,0.5],[1,0.5]];portConstraint=eastwest;" parent="t7g00nan9s0jNHVQrBZP-401" vertex="1">
          <mxGeometry y="363.55555555555554" width="195" height="28" as="geometry" />
        </mxCell>
        <mxCell id="t7g00nan9s0jNHVQrBZP-415" style="line;strokeWidth=1;fillColor=none;align=left;verticalAlign=middle;spacingTop=-1;spacingLeft=3;spacingRight=3;rotatable=0;labelPosition=right;points=[];portConstraint=eastwest;strokeColor=inherit;" parent="t7g00nan9s0jNHVQrBZP-401" vertex="1">
          <mxGeometry y="391.55555555555554" width="195" height="8" as="geometry" />
        </mxCell>
        <mxCell id="t7g00nan9s0jNHVQrBZP-416" value="+login()" style="text;strokeColor=none;fillColor=none;align=left;verticalAlign=top;spacingLeft=4;spacingRight=4;overflow=hidden;rotatable=0;points=[[0,0.5],[1,0.5]];portConstraint=eastwest;" parent="t7g00nan9s0jNHVQrBZP-401" vertex="1">
          <mxGeometry y="399.55555555555554" width="195" height="28" as="geometry" />
        </mxCell>
        <mxCell id="t7g00nan9s0jNHVQrBZP-417" value="+logout()" style="text;strokeColor=none;fillColor=none;align=left;verticalAlign=top;spacingLeft=4;spacingRight=4;overflow=hidden;rotatable=0;points=[[0,0.5],[1,0.5]];portConstraint=eastwest;" parent="t7g00nan9s0jNHVQrBZP-401" vertex="1">
          <mxGeometry y="427.55555555555554" width="195" height="28" as="geometry" />
        </mxCell>
        <mxCell id="t7g00nan9s0jNHVQrBZP-418" value="+updateProfile()" style="text;strokeColor=none;fillColor=none;align=left;verticalAlign=top;spacingLeft=4;spacingRight=4;overflow=hidden;rotatable=0;points=[[0,0.5],[1,0.5]];portConstraint=eastwest;" parent="t7g00nan9s0jNHVQrBZP-401" vertex="1">
          <mxGeometry y="455.55555555555554" width="195" height="28" as="geometry" />
        </mxCell>
        <mxCell id="t7g00nan9s0jNHVQrBZP-419" value="+resetPassword()" style="text;strokeColor=none;fillColor=none;align=left;verticalAlign=top;spacingLeft=4;spacingRight=4;overflow=hidden;rotatable=0;points=[[0,0.5],[1,0.5]];portConstraint=eastwest;" parent="t7g00nan9s0jNHVQrBZP-401" vertex="1">
          <mxGeometry y="483.55555555555554" width="195" height="28" as="geometry" />
        </mxCell>
        <mxCell id="t7g00nan9s0jNHVQrBZP-420" value="Doctor" style="swimlane;fontStyle=1;align=center;verticalAlign=top;childLayout=stackLayout;horizontal=1;startSize=27.555555555555557;horizontalStack=0;resizeParent=1;resizeParentMax=0;resizeLast=0;collapsible=0;marginBottom=0;" parent="1" vertex="1">
          <mxGeometry x="61" y="549" width="265" height="511.55555555555554" as="geometry" />
        </mxCell>
        <mxCell id="t7g00nan9s0jNHVQrBZP-421" value="+String doctorId" style="text;strokeColor=none;fillColor=none;align=left;verticalAlign=top;spacingLeft=4;spacingRight=4;overflow=hidden;rotatable=0;points=[[0,0.5],[1,0.5]];portConstraint=eastwest;" parent="t7g00nan9s0jNHVQrBZP-420" vertex="1">
          <mxGeometry y="27.555555555555557" width="265" height="28" as="geometry" />
        </mxCell>
        <mxCell id="t7g00nan9s0jNHVQrBZP-422" value="+String specialization" style="text;strokeColor=none;fillColor=none;align=left;verticalAlign=top;spacingLeft=4;spacingRight=4;overflow=hidden;rotatable=0;points=[[0,0.5],[1,0.5]];portConstraint=eastwest;" parent="t7g00nan9s0jNHVQrBZP-420" vertex="1">
          <mxGeometry y="55.55555555555556" width="265" height="28" as="geometry" />
        </mxCell>
        <mxCell id="t7g00nan9s0jNHVQrBZP-423" value="+String qualification" style="text;strokeColor=none;fillColor=none;align=left;verticalAlign=top;spacingLeft=4;spacingRight=4;overflow=hidden;rotatable=0;points=[[0,0.5],[1,0.5]];portConstraint=eastwest;" parent="t7g00nan9s0jNHVQrBZP-420" vertex="1">
          <mxGeometry y="83.55555555555556" width="265" height="28" as="geometry" />
        </mxCell>
        <mxCell id="t7g00nan9s0jNHVQrBZP-424" value="+String experience" style="text;strokeColor=none;fillColor=none;align=left;verticalAlign=top;spacingLeft=4;spacingRight=4;overflow=hidden;rotatable=0;points=[[0,0.5],[1,0.5]];portConstraint=eastwest;" parent="t7g00nan9s0jNHVQrBZP-420" vertex="1">
          <mxGeometry y="111.55555555555556" width="265" height="28" as="geometry" />
        </mxCell>
        <mxCell id="t7g00nan9s0jNHVQrBZP-425" value="+String licenseNumber" style="text;strokeColor=none;fillColor=none;align=left;verticalAlign=top;spacingLeft=4;spacingRight=4;overflow=hidden;rotatable=0;points=[[0,0.5],[1,0.5]];portConstraint=eastwest;" parent="t7g00nan9s0jNHVQrBZP-420" vertex="1">
          <mxGeometry y="139.55555555555554" width="265" height="28" as="geometry" />
        </mxCell>
        <mxCell id="t7g00nan9s0jNHVQrBZP-426" value="+Double consultationFee" style="text;strokeColor=none;fillColor=none;align=left;verticalAlign=top;spacingLeft=4;spacingRight=4;overflow=hidden;rotatable=0;points=[[0,0.5],[1,0.5]];portConstraint=eastwest;" parent="t7g00nan9s0jNHVQrBZP-420" vertex="1">
          <mxGeometry y="167.55555555555554" width="265" height="28" as="geometry" />
        </mxCell>
        <mxCell id="t7g00nan9s0jNHVQrBZP-427" value="+String biography" style="text;strokeColor=none;fillColor=none;align=left;verticalAlign=top;spacingLeft=4;spacingRight=4;overflow=hidden;rotatable=0;points=[[0,0.5],[1,0.5]];portConstraint=eastwest;" parent="t7g00nan9s0jNHVQrBZP-420" vertex="1">
          <mxGeometry y="195.55555555555554" width="265" height="28" as="geometry" />
        </mxCell>
        <mxCell id="t7g00nan9s0jNHVQrBZP-428" value="+List&lt;String&gt; certifications" style="text;strokeColor=none;fillColor=none;align=left;verticalAlign=top;spacingLeft=4;spacingRight=4;overflow=hidden;rotatable=0;points=[[0,0.5],[1,0.5]];portConstraint=eastwest;" parent="t7g00nan9s0jNHVQrBZP-420" vertex="1">
          <mxGeometry y="223.55555555555554" width="265" height="28" as="geometry" />
        </mxCell>
        <mxCell id="t7g00nan9s0jNHVQrBZP-429" value="+Boolean isVerified" style="text;strokeColor=none;fillColor=none;align=left;verticalAlign=top;spacingLeft=4;spacingRight=4;overflow=hidden;rotatable=0;points=[[0,0.5],[1,0.5]];portConstraint=eastwest;" parent="t7g00nan9s0jNHVQrBZP-420" vertex="1">
          <mxGeometry y="251.55555555555554" width="265" height="28" as="geometry" />
        </mxCell>
        <mxCell id="t7g00nan9s0jNHVQrBZP-430" value="+Double averageRating" style="text;strokeColor=none;fillColor=none;align=left;verticalAlign=top;spacingLeft=4;spacingRight=4;overflow=hidden;rotatable=0;points=[[0,0.5],[1,0.5]];portConstraint=eastwest;" parent="t7g00nan9s0jNHVQrBZP-420" vertex="1">
          <mxGeometry y="279.55555555555554" width="265" height="28" as="geometry" />
        </mxCell>
        <mxCell id="t7g00nan9s0jNHVQrBZP-431" value="+Integer totalReviews" style="text;strokeColor=none;fillColor=none;align=left;verticalAlign=top;spacingLeft=4;spacingRight=4;overflow=hidden;rotatable=0;points=[[0,0.5],[1,0.5]];portConstraint=eastwest;" parent="t7g00nan9s0jNHVQrBZP-420" vertex="1">
          <mxGeometry y="307.55555555555554" width="265" height="28" as="geometry" />
        </mxCell>
        <mxCell id="t7g00nan9s0jNHVQrBZP-432" value="+AvailabilityStatus availability" style="text;strokeColor=none;fillColor=none;align=left;verticalAlign=top;spacingLeft=4;spacingRight=4;overflow=hidden;rotatable=0;points=[[0,0.5],[1,0.5]];portConstraint=eastwest;" parent="t7g00nan9s0jNHVQrBZP-420" vertex="1">
          <mxGeometry y="335.55555555555554" width="265" height="28" as="geometry" />
        </mxCell>
        <mxCell id="t7g00nan9s0jNHVQrBZP-433" style="line;strokeWidth=1;fillColor=none;align=left;verticalAlign=middle;spacingTop=-1;spacingLeft=3;spacingRight=3;rotatable=0;labelPosition=right;points=[];portConstraint=eastwest;strokeColor=inherit;" parent="t7g00nan9s0jNHVQrBZP-420" vertex="1">
          <mxGeometry y="363.55555555555554" width="265" height="8" as="geometry" />
        </mxCell>
        <mxCell id="t7g00nan9s0jNHVQrBZP-434" value="+approveAppointment()" style="text;strokeColor=none;fillColor=none;align=left;verticalAlign=top;spacingLeft=4;spacingRight=4;overflow=hidden;rotatable=0;points=[[0,0.5],[1,0.5]];portConstraint=eastwest;" parent="t7g00nan9s0jNHVQrBZP-420" vertex="1">
          <mxGeometry y="371.55555555555554" width="265" height="28" as="geometry" />
        </mxCell>
        <mxCell id="t7g00nan9s0jNHVQrBZP-435" value="+rejectAppointment()" style="text;strokeColor=none;fillColor=none;align=left;verticalAlign=top;spacingLeft=4;spacingRight=4;overflow=hidden;rotatable=0;points=[[0,0.5],[1,0.5]];portConstraint=eastwest;" parent="t7g00nan9s0jNHVQrBZP-420" vertex="1">
          <mxGeometry y="399.55555555555554" width="265" height="28" as="geometry" />
        </mxCell>
        <mxCell id="t7g00nan9s0jNHVQrBZP-436" value="+updateAvailability()" style="text;strokeColor=none;fillColor=none;align=left;verticalAlign=top;spacingLeft=4;spacingRight=4;overflow=hidden;rotatable=0;points=[[0,0.5],[1,0.5]];portConstraint=eastwest;" parent="t7g00nan9s0jNHVQrBZP-420" vertex="1">
          <mxGeometry y="427.55555555555554" width="265" height="28" as="geometry" />
        </mxCell>
        <mxCell id="t7g00nan9s0jNHVQrBZP-437" value="+writeBlogPost()" style="text;strokeColor=none;fillColor=none;align=left;verticalAlign=top;spacingLeft=4;spacingRight=4;overflow=hidden;rotatable=0;points=[[0,0.5],[1,0.5]];portConstraint=eastwest;" parent="t7g00nan9s0jNHVQrBZP-420" vertex="1">
          <mxGeometry y="455.55555555555554" width="265" height="28" as="geometry" />
        </mxCell>
        <mxCell id="t7g00nan9s0jNHVQrBZP-438" value="+respondToReview()" style="text;strokeColor=none;fillColor=none;align=left;verticalAlign=top;spacingLeft=4;spacingRight=4;overflow=hidden;rotatable=0;points=[[0,0.5],[1,0.5]];portConstraint=eastwest;" parent="t7g00nan9s0jNHVQrBZP-420" vertex="1">
          <mxGeometry y="483.55555555555554" width="265" height="28" as="geometry" />
        </mxCell>
        <mxCell id="t7g00nan9s0jNHVQrBZP-439" value="Hospital" style="swimlane;fontStyle=1;align=center;verticalAlign=top;childLayout=stackLayout;horizontal=1;startSize=28;horizontalStack=0;resizeParent=1;resizeParentMax=0;resizeLast=0;collapsible=0;marginBottom=0;" parent="1" vertex="1">
          <mxGeometry x="1630" y="290" width="248" height="456" as="geometry" />
        </mxCell>
        <mxCell id="t7g00nan9s0jNHVQrBZP-440" value="+String hospitalId" style="text;strokeColor=none;fillColor=none;align=left;verticalAlign=top;spacingLeft=4;spacingRight=4;overflow=hidden;rotatable=0;points=[[0,0.5],[1,0.5]];portConstraint=eastwest;" parent="t7g00nan9s0jNHVQrBZP-439" vertex="1">
          <mxGeometry y="28" width="248" height="28" as="geometry" />
        </mxCell>
        <mxCell id="t7g00nan9s0jNHVQrBZP-441" value="+String hospitalName" style="text;strokeColor=none;fillColor=none;align=left;verticalAlign=top;spacingLeft=4;spacingRight=4;overflow=hidden;rotatable=0;points=[[0,0.5],[1,0.5]];portConstraint=eastwest;" parent="t7g00nan9s0jNHVQrBZP-439" vertex="1">
          <mxGeometry y="56" width="248" height="28" as="geometry" />
        </mxCell>
        <mxCell id="t7g00nan9s0jNHVQrBZP-442" value="+String address" style="text;strokeColor=none;fillColor=none;align=left;verticalAlign=top;spacingLeft=4;spacingRight=4;overflow=hidden;rotatable=0;points=[[0,0.5],[1,0.5]];portConstraint=eastwest;" parent="t7g00nan9s0jNHVQrBZP-439" vertex="1">
          <mxGeometry y="84" width="248" height="28" as="geometry" />
        </mxCell>
        <mxCell id="t7g00nan9s0jNHVQrBZP-443" value="+String phoneNumber" style="text;strokeColor=none;fillColor=none;align=left;verticalAlign=top;spacingLeft=4;spacingRight=4;overflow=hidden;rotatable=0;points=[[0,0.5],[1,0.5]];portConstraint=eastwest;" parent="t7g00nan9s0jNHVQrBZP-439" vertex="1">
          <mxGeometry y="112" width="248" height="28" as="geometry" />
        </mxCell>
        <mxCell id="t7g00nan9s0jNHVQrBZP-444" value="+String email" style="text;strokeColor=none;fillColor=none;align=left;verticalAlign=top;spacingLeft=4;spacingRight=4;overflow=hidden;rotatable=0;points=[[0,0.5],[1,0.5]];portConstraint=eastwest;" parent="t7g00nan9s0jNHVQrBZP-439" vertex="1">
          <mxGeometry y="140" width="248" height="28" as="geometry" />
        </mxCell>
        <mxCell id="t7g00nan9s0jNHVQrBZP-445" value="+String description" style="text;strokeColor=none;fillColor=none;align=left;verticalAlign=top;spacingLeft=4;spacingRight=4;overflow=hidden;rotatable=0;points=[[0,0.5],[1,0.5]];portConstraint=eastwest;" parent="t7g00nan9s0jNHVQrBZP-439" vertex="1">
          <mxGeometry y="168" width="248" height="28" as="geometry" />
        </mxCell>
        <mxCell id="t7g00nan9s0jNHVQrBZP-446" value="+List&lt;String&gt; services" style="text;strokeColor=none;fillColor=none;align=left;verticalAlign=top;spacingLeft=4;spacingRight=4;overflow=hidden;rotatable=0;points=[[0,0.5],[1,0.5]];portConstraint=eastwest;" parent="t7g00nan9s0jNHVQrBZP-439" vertex="1">
          <mxGeometry y="196" width="248" height="28" as="geometry" />
        </mxCell>
        <mxCell id="t7g00nan9s0jNHVQrBZP-447" value="+String registrationNumber" style="text;strokeColor=none;fillColor=none;align=left;verticalAlign=top;spacingLeft=4;spacingRight=4;overflow=hidden;rotatable=0;points=[[0,0.5],[1,0.5]];portConstraint=eastwest;" parent="t7g00nan9s0jNHVQrBZP-439" vertex="1">
          <mxGeometry y="224" width="248" height="28" as="geometry" />
        </mxCell>
        <mxCell id="t7g00nan9s0jNHVQrBZP-448" value="+Boolean isVerified" style="text;strokeColor=none;fillColor=none;align=left;verticalAlign=top;spacingLeft=4;spacingRight=4;overflow=hidden;rotatable=0;points=[[0,0.5],[1,0.5]];portConstraint=eastwest;" parent="t7g00nan9s0jNHVQrBZP-439" vertex="1">
          <mxGeometry y="252" width="248" height="28" as="geometry" />
        </mxCell>
        <mxCell id="t7g00nan9s0jNHVQrBZP-449" value="+Double averageRating" style="text;strokeColor=none;fillColor=none;align=left;verticalAlign=top;spacingLeft=4;spacingRight=4;overflow=hidden;rotatable=0;points=[[0,0.5],[1,0.5]];portConstraint=eastwest;" parent="t7g00nan9s0jNHVQrBZP-439" vertex="1">
          <mxGeometry y="280" width="248" height="28" as="geometry" />
        </mxCell>
        <mxCell id="t7g00nan9s0jNHVQrBZP-450" value="+Integer totalReviews" style="text;strokeColor=none;fillColor=none;align=left;verticalAlign=top;spacingLeft=4;spacingRight=4;overflow=hidden;rotatable=0;points=[[0,0.5],[1,0.5]];portConstraint=eastwest;" parent="t7g00nan9s0jNHVQrBZP-439" vertex="1">
          <mxGeometry y="308" width="248" height="28" as="geometry" />
        </mxCell>
        <mxCell id="t7g00nan9s0jNHVQrBZP-451" style="line;strokeWidth=1;fillColor=none;align=left;verticalAlign=middle;spacingTop=-1;spacingLeft=3;spacingRight=3;rotatable=0;labelPosition=right;points=[];portConstraint=eastwest;strokeColor=inherit;" parent="t7g00nan9s0jNHVQrBZP-439" vertex="1">
          <mxGeometry y="336" width="248" height="8" as="geometry" />
        </mxCell>
        <mxCell id="t7g00nan9s0jNHVQrBZP-452" value="+addDoctor()" style="text;strokeColor=none;fillColor=none;align=left;verticalAlign=top;spacingLeft=4;spacingRight=4;overflow=hidden;rotatable=0;points=[[0,0.5],[1,0.5]];portConstraint=eastwest;" parent="t7g00nan9s0jNHVQrBZP-439" vertex="1">
          <mxGeometry y="344" width="248" height="28" as="geometry" />
        </mxCell>
        <mxCell id="t7g00nan9s0jNHVQrBZP-453" value="+removeDoctor()" style="text;strokeColor=none;fillColor=none;align=left;verticalAlign=top;spacingLeft=4;spacingRight=4;overflow=hidden;rotatable=0;points=[[0,0.5],[1,0.5]];portConstraint=eastwest;" parent="t7g00nan9s0jNHVQrBZP-439" vertex="1">
          <mxGeometry y="372" width="248" height="28" as="geometry" />
        </mxCell>
        <mxCell id="t7g00nan9s0jNHVQrBZP-454" value="+manageCabins()" style="text;strokeColor=none;fillColor=none;align=left;verticalAlign=top;spacingLeft=4;spacingRight=4;overflow=hidden;rotatable=0;points=[[0,0.5],[1,0.5]];portConstraint=eastwest;" parent="t7g00nan9s0jNHVQrBZP-439" vertex="1">
          <mxGeometry y="400" width="248" height="28" as="geometry" />
        </mxCell>
        <mxCell id="t7g00nan9s0jNHVQrBZP-455" value="+manageEquipment()" style="text;strokeColor=none;fillColor=none;align=left;verticalAlign=top;spacingLeft=4;spacingRight=4;overflow=hidden;rotatable=0;points=[[0,0.5],[1,0.5]];portConstraint=eastwest;" parent="t7g00nan9s0jNHVQrBZP-439" vertex="1">
          <mxGeometry y="428" width="248" height="28" as="geometry" />
        </mxCell>
        <mxCell id="t7g00nan9s0jNHVQrBZP-456" value="Admin" style="swimlane;fontStyle=1;align=center;verticalAlign=top;childLayout=stackLayout;horizontal=1;startSize=32;horizontalStack=0;resizeParent=1;resizeParentMax=0;resizeLast=0;collapsible=0;marginBottom=0;" parent="1" vertex="1">
          <mxGeometry x="1203" y="585" width="234" height="264" as="geometry" />
        </mxCell>
        <mxCell id="t7g00nan9s0jNHVQrBZP-457" value="+String adminId" style="text;strokeColor=none;fillColor=none;align=left;verticalAlign=top;spacingLeft=4;spacingRight=4;overflow=hidden;rotatable=0;points=[[0,0.5],[1,0.5]];portConstraint=eastwest;" parent="t7g00nan9s0jNHVQrBZP-456" vertex="1">
          <mxGeometry y="32" width="234" height="32" as="geometry" />
        </mxCell>
        <mxCell id="t7g00nan9s0jNHVQrBZP-458" value="+AdminRole role" style="text;strokeColor=none;fillColor=none;align=left;verticalAlign=top;spacingLeft=4;spacingRight=4;overflow=hidden;rotatable=0;points=[[0,0.5],[1,0.5]];portConstraint=eastwest;" parent="t7g00nan9s0jNHVQrBZP-456" vertex="1">
          <mxGeometry y="64" width="234" height="32" as="geometry" />
        </mxCell>
        <mxCell id="t7g00nan9s0jNHVQrBZP-459" value="+List&lt;String&gt; permissions" style="text;strokeColor=none;fillColor=none;align=left;verticalAlign=top;spacingLeft=4;spacingRight=4;overflow=hidden;rotatable=0;points=[[0,0.5],[1,0.5]];portConstraint=eastwest;" parent="t7g00nan9s0jNHVQrBZP-456" vertex="1">
          <mxGeometry y="96" width="234" height="32" as="geometry" />
        </mxCell>
        <mxCell id="t7g00nan9s0jNHVQrBZP-460" style="line;strokeWidth=1;fillColor=none;align=left;verticalAlign=middle;spacingTop=-1;spacingLeft=3;spacingRight=3;rotatable=0;labelPosition=right;points=[];portConstraint=eastwest;strokeColor=inherit;" parent="t7g00nan9s0jNHVQrBZP-456" vertex="1">
          <mxGeometry y="128" width="234" height="8" as="geometry" />
        </mxCell>
        <mxCell id="t7g00nan9s0jNHVQrBZP-461" value="+manageUsers()" style="text;strokeColor=none;fillColor=none;align=left;verticalAlign=top;spacingLeft=4;spacingRight=4;overflow=hidden;rotatable=0;points=[[0,0.5],[1,0.5]];portConstraint=eastwest;" parent="t7g00nan9s0jNHVQrBZP-456" vertex="1">
          <mxGeometry y="136" width="234" height="32" as="geometry" />
        </mxCell>
        <mxCell id="t7g00nan9s0jNHVQrBZP-462" value="+generateReports()" style="text;strokeColor=none;fillColor=none;align=left;verticalAlign=top;spacingLeft=4;spacingRight=4;overflow=hidden;rotatable=0;points=[[0,0.5],[1,0.5]];portConstraint=eastwest;" parent="t7g00nan9s0jNHVQrBZP-456" vertex="1">
          <mxGeometry y="168" width="234" height="32" as="geometry" />
        </mxCell>
        <mxCell id="t7g00nan9s0jNHVQrBZP-463" value="+systemConfiguration()" style="text;strokeColor=none;fillColor=none;align=left;verticalAlign=top;spacingLeft=4;spacingRight=4;overflow=hidden;rotatable=0;points=[[0,0.5],[1,0.5]];portConstraint=eastwest;" parent="t7g00nan9s0jNHVQrBZP-456" vertex="1">
          <mxGeometry y="200" width="234" height="32" as="geometry" />
        </mxCell>
        <mxCell id="t7g00nan9s0jNHVQrBZP-464" value="+moderatorManagement()" style="text;strokeColor=none;fillColor=none;align=left;verticalAlign=top;spacingLeft=4;spacingRight=4;overflow=hidden;rotatable=0;points=[[0,0.5],[1,0.5]];portConstraint=eastwest;" parent="t7g00nan9s0jNHVQrBZP-456" vertex="1">
          <mxGeometry y="232" width="234" height="32" as="geometry" />
        </mxCell>
        <mxCell id="t7g00nan9s0jNHVQrBZP-465" value="Moderator" style="swimlane;fontStyle=1;align=center;verticalAlign=top;childLayout=stackLayout;horizontal=1;startSize=33.142857142857146;horizontalStack=0;resizeParent=1;resizeParentMax=0;resizeLast=0;collapsible=0;marginBottom=0;" parent="1" vertex="1">
          <mxGeometry x="1780" y="789.86" width="242" height="239.14285714285714" as="geometry" />
        </mxCell>
        <mxCell id="t7g00nan9s0jNHVQrBZP-466" value="+String moderatorId" style="text;strokeColor=none;fillColor=none;align=left;verticalAlign=top;spacingLeft=4;spacingRight=4;overflow=hidden;rotatable=0;points=[[0,0.5],[1,0.5]];portConstraint=eastwest;" parent="t7g00nan9s0jNHVQrBZP-465" vertex="1">
          <mxGeometry y="33.142857142857146" width="242" height="33" as="geometry" />
        </mxCell>
        <mxCell id="t7g00nan9s0jNHVQrBZP-467" value="+List&lt;String&gt; permissions" style="text;strokeColor=none;fillColor=none;align=left;verticalAlign=top;spacingLeft=4;spacingRight=4;overflow=hidden;rotatable=0;points=[[0,0.5],[1,0.5]];portConstraint=eastwest;" parent="t7g00nan9s0jNHVQrBZP-465" vertex="1">
          <mxGeometry y="66.14285714285714" width="242" height="33" as="geometry" />
        </mxCell>
        <mxCell id="t7g00nan9s0jNHVQrBZP-468" style="line;strokeWidth=1;fillColor=none;align=left;verticalAlign=middle;spacingTop=-1;spacingLeft=3;spacingRight=3;rotatable=0;labelPosition=right;points=[];portConstraint=eastwest;strokeColor=inherit;" parent="t7g00nan9s0jNHVQrBZP-465" vertex="1">
          <mxGeometry y="99.14285714285714" width="242" height="8" as="geometry" />
        </mxCell>
        <mxCell id="t7g00nan9s0jNHVQrBZP-469" value="+moderateContent()" style="text;strokeColor=none;fillColor=none;align=left;verticalAlign=top;spacingLeft=4;spacingRight=4;overflow=hidden;rotatable=0;points=[[0,0.5],[1,0.5]];portConstraint=eastwest;" parent="t7g00nan9s0jNHVQrBZP-465" vertex="1">
          <mxGeometry y="107.14285714285714" width="242" height="33" as="geometry" />
        </mxCell>
        <mxCell id="t7g00nan9s0jNHVQrBZP-470" value="+reviewReports()" style="text;strokeColor=none;fillColor=none;align=left;verticalAlign=top;spacingLeft=4;spacingRight=4;overflow=hidden;rotatable=0;points=[[0,0.5],[1,0.5]];portConstraint=eastwest;" parent="t7g00nan9s0jNHVQrBZP-465" vertex="1">
          <mxGeometry y="140.14285714285714" width="242" height="33" as="geometry" />
        </mxCell>
        <mxCell id="t7g00nan9s0jNHVQrBZP-471" value="+approveBlogs()" style="text;strokeColor=none;fillColor=none;align=left;verticalAlign=top;spacingLeft=4;spacingRight=4;overflow=hidden;rotatable=0;points=[[0,0.5],[1,0.5]];portConstraint=eastwest;" parent="t7g00nan9s0jNHVQrBZP-465" vertex="1">
          <mxGeometry y="173.14285714285714" width="242" height="33" as="geometry" />
        </mxCell>
        <mxCell id="t7g00nan9s0jNHVQrBZP-472" value="+handleDisputes()" style="text;strokeColor=none;fillColor=none;align=left;verticalAlign=top;spacingLeft=4;spacingRight=4;overflow=hidden;rotatable=0;points=[[0,0.5],[1,0.5]];portConstraint=eastwest;" parent="t7g00nan9s0jNHVQrBZP-465" vertex="1">
          <mxGeometry y="206.14285714285714" width="242" height="33" as="geometry" />
        </mxCell>
        <mxCell id="t7g00nan9s0jNHVQrBZP-473" value="Appointment" style="swimlane;fontStyle=1;align=center;verticalAlign=top;childLayout=stackLayout;horizontal=1;startSize=28;horizontalStack=0;resizeParent=1;resizeParentMax=0;resizeLast=0;collapsible=0;marginBottom=0;" parent="1" vertex="1">
          <mxGeometry x="246" y="1703" width="265" height="456" as="geometry" />
        </mxCell>
        <mxCell id="t7g00nan9s0jNHVQrBZP-474" value="+String appointmentId" style="text;strokeColor=none;fillColor=none;align=left;verticalAlign=top;spacingLeft=4;spacingRight=4;overflow=hidden;rotatable=0;points=[[0,0.5],[1,0.5]];portConstraint=eastwest;" parent="t7g00nan9s0jNHVQrBZP-473" vertex="1">
          <mxGeometry y="28" width="265" height="28" as="geometry" />
        </mxCell>
        <mxCell id="t7g00nan9s0jNHVQrBZP-475" value="+String userId" style="text;strokeColor=none;fillColor=none;align=left;verticalAlign=top;spacingLeft=4;spacingRight=4;overflow=hidden;rotatable=0;points=[[0,0.5],[1,0.5]];portConstraint=eastwest;" parent="t7g00nan9s0jNHVQrBZP-473" vertex="1">
          <mxGeometry y="56" width="265" height="28" as="geometry" />
        </mxCell>
        <mxCell id="t7g00nan9s0jNHVQrBZP-476" value="+String doctorId" style="text;strokeColor=none;fillColor=none;align=left;verticalAlign=top;spacingLeft=4;spacingRight=4;overflow=hidden;rotatable=0;points=[[0,0.5],[1,0.5]];portConstraint=eastwest;" parent="t7g00nan9s0jNHVQrBZP-473" vertex="1">
          <mxGeometry y="84" width="265" height="28" as="geometry" />
        </mxCell>
        <mxCell id="t7g00nan9s0jNHVQrBZP-477" value="+Date appointmentDate" style="text;strokeColor=none;fillColor=none;align=left;verticalAlign=top;spacingLeft=4;spacingRight=4;overflow=hidden;rotatable=0;points=[[0,0.5],[1,0.5]];portConstraint=eastwest;" parent="t7g00nan9s0jNHVQrBZP-473" vertex="1">
          <mxGeometry y="112" width="265" height="28" as="geometry" />
        </mxCell>
        <mxCell id="t7g00nan9s0jNHVQrBZP-478" value="+Time appointmentTime" style="text;strokeColor=none;fillColor=none;align=left;verticalAlign=top;spacingLeft=4;spacingRight=4;overflow=hidden;rotatable=0;points=[[0,0.5],[1,0.5]];portConstraint=eastwest;" parent="t7g00nan9s0jNHVQrBZP-473" vertex="1">
          <mxGeometry y="140" width="265" height="28" as="geometry" />
        </mxCell>
        <mxCell id="t7g00nan9s0jNHVQrBZP-479" value="+AppointmentStatus status" style="text;strokeColor=none;fillColor=none;align=left;verticalAlign=top;spacingLeft=4;spacingRight=4;overflow=hidden;rotatable=0;points=[[0,0.5],[1,0.5]];portConstraint=eastwest;" parent="t7g00nan9s0jNHVQrBZP-473" vertex="1">
          <mxGeometry y="168" width="265" height="28" as="geometry" />
        </mxCell>
        <mxCell id="t7g00nan9s0jNHVQrBZP-480" value="+String reason" style="text;strokeColor=none;fillColor=none;align=left;verticalAlign=top;spacingLeft=4;spacingRight=4;overflow=hidden;rotatable=0;points=[[0,0.5],[1,0.5]];portConstraint=eastwest;" parent="t7g00nan9s0jNHVQrBZP-473" vertex="1">
          <mxGeometry y="196" width="265" height="28" as="geometry" />
        </mxCell>
        <mxCell id="t7g00nan9s0jNHVQrBZP-481" value="+String notes" style="text;strokeColor=none;fillColor=none;align=left;verticalAlign=top;spacingLeft=4;spacingRight=4;overflow=hidden;rotatable=0;points=[[0,0.5],[1,0.5]];portConstraint=eastwest;" parent="t7g00nan9s0jNHVQrBZP-473" vertex="1">
          <mxGeometry y="224" width="265" height="28" as="geometry" />
        </mxCell>
        <mxCell id="t7g00nan9s0jNHVQrBZP-482" value="+Double consultationFee" style="text;strokeColor=none;fillColor=none;align=left;verticalAlign=top;spacingLeft=4;spacingRight=4;overflow=hidden;rotatable=0;points=[[0,0.5],[1,0.5]];portConstraint=eastwest;" parent="t7g00nan9s0jNHVQrBZP-473" vertex="1">
          <mxGeometry y="252" width="265" height="28" as="geometry" />
        </mxCell>
        <mxCell id="t7g00nan9s0jNHVQrBZP-483" value="+Date createdAt" style="text;strokeColor=none;fillColor=none;align=left;verticalAlign=top;spacingLeft=4;spacingRight=4;overflow=hidden;rotatable=0;points=[[0,0.5],[1,0.5]];portConstraint=eastwest;" parent="t7g00nan9s0jNHVQrBZP-473" vertex="1">
          <mxGeometry y="280" width="265" height="28" as="geometry" />
        </mxCell>
        <mxCell id="t7g00nan9s0jNHVQrBZP-484" value="+String symptoms" style="text;strokeColor=none;fillColor=none;align=left;verticalAlign=top;spacingLeft=4;spacingRight=4;overflow=hidden;rotatable=0;points=[[0,0.5],[1,0.5]];portConstraint=eastwest;" parent="t7g00nan9s0jNHVQrBZP-473" vertex="1">
          <mxGeometry y="308" width="265" height="28" as="geometry" />
        </mxCell>
        <mxCell id="t7g00nan9s0jNHVQrBZP-485" style="line;strokeWidth=1;fillColor=none;align=left;verticalAlign=middle;spacingTop=-1;spacingLeft=3;spacingRight=3;rotatable=0;labelPosition=right;points=[];portConstraint=eastwest;strokeColor=inherit;" parent="t7g00nan9s0jNHVQrBZP-473" vertex="1">
          <mxGeometry y="336" width="265" height="8" as="geometry" />
        </mxCell>
        <mxCell id="t7g00nan9s0jNHVQrBZP-486" value="+scheduleAppointment()" style="text;strokeColor=none;fillColor=none;align=left;verticalAlign=top;spacingLeft=4;spacingRight=4;overflow=hidden;rotatable=0;points=[[0,0.5],[1,0.5]];portConstraint=eastwest;" parent="t7g00nan9s0jNHVQrBZP-473" vertex="1">
          <mxGeometry y="344" width="265" height="28" as="geometry" />
        </mxCell>
        <mxCell id="t7g00nan9s0jNHVQrBZP-487" value="+cancelAppointment()" style="text;strokeColor=none;fillColor=none;align=left;verticalAlign=top;spacingLeft=4;spacingRight=4;overflow=hidden;rotatable=0;points=[[0,0.5],[1,0.5]];portConstraint=eastwest;" parent="t7g00nan9s0jNHVQrBZP-473" vertex="1">
          <mxGeometry y="372" width="265" height="28" as="geometry" />
        </mxCell>
        <mxCell id="t7g00nan9s0jNHVQrBZP-488" value="+rescheduleAppointment()" style="text;strokeColor=none;fillColor=none;align=left;verticalAlign=top;spacingLeft=4;spacingRight=4;overflow=hidden;rotatable=0;points=[[0,0.5],[1,0.5]];portConstraint=eastwest;" parent="t7g00nan9s0jNHVQrBZP-473" vertex="1">
          <mxGeometry y="400" width="265" height="28" as="geometry" />
        </mxCell>
        <mxCell id="t7g00nan9s0jNHVQrBZP-489" value="+completeAppointment()" style="text;strokeColor=none;fillColor=none;align=left;verticalAlign=top;spacingLeft=4;spacingRight=4;overflow=hidden;rotatable=0;points=[[0,0.5],[1,0.5]];portConstraint=eastwest;" parent="t7g00nan9s0jNHVQrBZP-473" vertex="1">
          <mxGeometry y="428" width="265" height="28" as="geometry" />
        </mxCell>
        <mxCell id="t7g00nan9s0jNHVQrBZP-497" value="Review" style="swimlane;fontStyle=1;align=center;verticalAlign=top;childLayout=stackLayout;horizontal=1;startSize=28.571428571428573;horizontalStack=0;resizeParent=1;resizeParentMax=0;resizeLast=0;collapsible=0;marginBottom=0;" parent="1" vertex="1">
          <mxGeometry x="1419" y="1727" width="225" height="413.57142857142856" as="geometry" />
        </mxCell>
        <mxCell id="t7g00nan9s0jNHVQrBZP-498" value="+String reviewId" style="text;strokeColor=none;fillColor=none;align=left;verticalAlign=top;spacingLeft=4;spacingRight=4;overflow=hidden;rotatable=0;points=[[0,0.5],[1,0.5]];portConstraint=eastwest;" parent="t7g00nan9s0jNHVQrBZP-497" vertex="1">
          <mxGeometry y="28.571428571428573" width="225" height="29" as="geometry" />
        </mxCell>
        <mxCell id="t7g00nan9s0jNHVQrBZP-499" value="+String userId" style="text;strokeColor=none;fillColor=none;align=left;verticalAlign=top;spacingLeft=4;spacingRight=4;overflow=hidden;rotatable=0;points=[[0,0.5],[1,0.5]];portConstraint=eastwest;" parent="t7g00nan9s0jNHVQrBZP-497" vertex="1">
          <mxGeometry y="57.57142857142857" width="225" height="29" as="geometry" />
        </mxCell>
        <mxCell id="t7g00nan9s0jNHVQrBZP-500" value="+String targetId" style="text;strokeColor=none;fillColor=none;align=left;verticalAlign=top;spacingLeft=4;spacingRight=4;overflow=hidden;rotatable=0;points=[[0,0.5],[1,0.5]];portConstraint=eastwest;" parent="t7g00nan9s0jNHVQrBZP-497" vertex="1">
          <mxGeometry y="86.57142857142857" width="225" height="29" as="geometry" />
        </mxCell>
        <mxCell id="t7g00nan9s0jNHVQrBZP-501" value="+ReviewType targetType" style="text;strokeColor=none;fillColor=none;align=left;verticalAlign=top;spacingLeft=4;spacingRight=4;overflow=hidden;rotatable=0;points=[[0,0.5],[1,0.5]];portConstraint=eastwest;" parent="t7g00nan9s0jNHVQrBZP-497" vertex="1">
          <mxGeometry y="115.57142857142857" width="225" height="29" as="geometry" />
        </mxCell>
        <mxCell id="t7g00nan9s0jNHVQrBZP-502" value="+Integer rating" style="text;strokeColor=none;fillColor=none;align=left;verticalAlign=top;spacingLeft=4;spacingRight=4;overflow=hidden;rotatable=0;points=[[0,0.5],[1,0.5]];portConstraint=eastwest;" parent="t7g00nan9s0jNHVQrBZP-497" vertex="1">
          <mxGeometry y="144.57142857142856" width="225" height="29" as="geometry" />
        </mxCell>
        <mxCell id="t7g00nan9s0jNHVQrBZP-503" value="+String comment" style="text;strokeColor=none;fillColor=none;align=left;verticalAlign=top;spacingLeft=4;spacingRight=4;overflow=hidden;rotatable=0;points=[[0,0.5],[1,0.5]];portConstraint=eastwest;" parent="t7g00nan9s0jNHVQrBZP-497" vertex="1">
          <mxGeometry y="173.57142857142856" width="225" height="29" as="geometry" />
        </mxCell>
        <mxCell id="t7g00nan9s0jNHVQrBZP-504" value="+Date createdAt" style="text;strokeColor=none;fillColor=none;align=left;verticalAlign=top;spacingLeft=4;spacingRight=4;overflow=hidden;rotatable=0;points=[[0,0.5],[1,0.5]];portConstraint=eastwest;" parent="t7g00nan9s0jNHVQrBZP-497" vertex="1">
          <mxGeometry y="202.57142857142856" width="225" height="29" as="geometry" />
        </mxCell>
        <mxCell id="t7g00nan9s0jNHVQrBZP-505" value="+Boolean isModerated" style="text;strokeColor=none;fillColor=none;align=left;verticalAlign=top;spacingLeft=4;spacingRight=4;overflow=hidden;rotatable=0;points=[[0,0.5],[1,0.5]];portConstraint=eastwest;" parent="t7g00nan9s0jNHVQrBZP-497" vertex="1">
          <mxGeometry y="231.57142857142856" width="225" height="29" as="geometry" />
        </mxCell>
        <mxCell id="t7g00nan9s0jNHVQrBZP-506" value="+String moderatorId" style="text;strokeColor=none;fillColor=none;align=left;verticalAlign=top;spacingLeft=4;spacingRight=4;overflow=hidden;rotatable=0;points=[[0,0.5],[1,0.5]];portConstraint=eastwest;" parent="t7g00nan9s0jNHVQrBZP-497" vertex="1">
          <mxGeometry y="260.57142857142856" width="225" height="29" as="geometry" />
        </mxCell>
        <mxCell id="t7g00nan9s0jNHVQrBZP-507" style="line;strokeWidth=1;fillColor=none;align=left;verticalAlign=middle;spacingTop=-1;spacingLeft=3;spacingRight=3;rotatable=0;labelPosition=right;points=[];portConstraint=eastwest;strokeColor=inherit;" parent="t7g00nan9s0jNHVQrBZP-497" vertex="1">
          <mxGeometry y="289.57142857142856" width="225" height="8" as="geometry" />
        </mxCell>
        <mxCell id="t7g00nan9s0jNHVQrBZP-508" value="+addReview()" style="text;strokeColor=none;fillColor=none;align=left;verticalAlign=top;spacingLeft=4;spacingRight=4;overflow=hidden;rotatable=0;points=[[0,0.5],[1,0.5]];portConstraint=eastwest;" parent="t7g00nan9s0jNHVQrBZP-497" vertex="1">
          <mxGeometry y="297.57142857142856" width="225" height="29" as="geometry" />
        </mxCell>
        <mxCell id="t7g00nan9s0jNHVQrBZP-509" value="+editReview()" style="text;strokeColor=none;fillColor=none;align=left;verticalAlign=top;spacingLeft=4;spacingRight=4;overflow=hidden;rotatable=0;points=[[0,0.5],[1,0.5]];portConstraint=eastwest;" parent="t7g00nan9s0jNHVQrBZP-497" vertex="1">
          <mxGeometry y="326.57142857142856" width="225" height="29" as="geometry" />
        </mxCell>
        <mxCell id="t7g00nan9s0jNHVQrBZP-510" value="+deleteReview()" style="text;strokeColor=none;fillColor=none;align=left;verticalAlign=top;spacingLeft=4;spacingRight=4;overflow=hidden;rotatable=0;points=[[0,0.5],[1,0.5]];portConstraint=eastwest;" parent="t7g00nan9s0jNHVQrBZP-497" vertex="1">
          <mxGeometry y="355.57142857142856" width="225" height="29" as="geometry" />
        </mxCell>
        <mxCell id="t7g00nan9s0jNHVQrBZP-511" value="+flagReview()" style="text;strokeColor=none;fillColor=none;align=left;verticalAlign=top;spacingLeft=4;spacingRight=4;overflow=hidden;rotatable=0;points=[[0,0.5],[1,0.5]];portConstraint=eastwest;" parent="t7g00nan9s0jNHVQrBZP-497" vertex="1">
          <mxGeometry y="384.57142857142856" width="225" height="29" as="geometry" />
        </mxCell>
        <mxCell id="t7g00nan9s0jNHVQrBZP-517" value="BlogPost" style="swimlane;fontStyle=1;align=center;verticalAlign=top;childLayout=stackLayout;horizontal=1;startSize=28;horizontalStack=0;resizeParent=1;resizeParentMax=0;resizeLast=0;collapsible=0;marginBottom=0;" parent="1" vertex="1">
          <mxGeometry x="236" y="1150" width="199" height="456" as="geometry" />
        </mxCell>
        <mxCell id="t7g00nan9s0jNHVQrBZP-518" value="+String postId" style="text;strokeColor=none;fillColor=none;align=left;verticalAlign=top;spacingLeft=4;spacingRight=4;overflow=hidden;rotatable=0;points=[[0,0.5],[1,0.5]];portConstraint=eastwest;" parent="t7g00nan9s0jNHVQrBZP-517" vertex="1">
          <mxGeometry y="28" width="199" height="28" as="geometry" />
        </mxCell>
        <mxCell id="t7g00nan9s0jNHVQrBZP-519" value="+String doctorId" style="text;strokeColor=none;fillColor=none;align=left;verticalAlign=top;spacingLeft=4;spacingRight=4;overflow=hidden;rotatable=0;points=[[0,0.5],[1,0.5]];portConstraint=eastwest;" parent="t7g00nan9s0jNHVQrBZP-517" vertex="1">
          <mxGeometry y="56" width="199" height="28" as="geometry" />
        </mxCell>
        <mxCell id="t7g00nan9s0jNHVQrBZP-520" value="+String title" style="text;strokeColor=none;fillColor=none;align=left;verticalAlign=top;spacingLeft=4;spacingRight=4;overflow=hidden;rotatable=0;points=[[0,0.5],[1,0.5]];portConstraint=eastwest;" parent="t7g00nan9s0jNHVQrBZP-517" vertex="1">
          <mxGeometry y="84" width="199" height="28" as="geometry" />
        </mxCell>
        <mxCell id="t7g00nan9s0jNHVQrBZP-521" value="+String content" style="text;strokeColor=none;fillColor=none;align=left;verticalAlign=top;spacingLeft=4;spacingRight=4;overflow=hidden;rotatable=0;points=[[0,0.5],[1,0.5]];portConstraint=eastwest;" parent="t7g00nan9s0jNHVQrBZP-517" vertex="1">
          <mxGeometry y="112" width="199" height="28" as="geometry" />
        </mxCell>
        <mxCell id="t7g00nan9s0jNHVQrBZP-522" value="+String summary" style="text;strokeColor=none;fillColor=none;align=left;verticalAlign=top;spacingLeft=4;spacingRight=4;overflow=hidden;rotatable=0;points=[[0,0.5],[1,0.5]];portConstraint=eastwest;" parent="t7g00nan9s0jNHVQrBZP-517" vertex="1">
          <mxGeometry y="140" width="199" height="28" as="geometry" />
        </mxCell>
        <mxCell id="t7g00nan9s0jNHVQrBZP-523" value="+List&lt;String&gt; tags" style="text;strokeColor=none;fillColor=none;align=left;verticalAlign=top;spacingLeft=4;spacingRight=4;overflow=hidden;rotatable=0;points=[[0,0.5],[1,0.5]];portConstraint=eastwest;" parent="t7g00nan9s0jNHVQrBZP-517" vertex="1">
          <mxGeometry y="168" width="199" height="28" as="geometry" />
        </mxCell>
        <mxCell id="t7g00nan9s0jNHVQrBZP-524" value="+Date publishedAt" style="text;strokeColor=none;fillColor=none;align=left;verticalAlign=top;spacingLeft=4;spacingRight=4;overflow=hidden;rotatable=0;points=[[0,0.5],[1,0.5]];portConstraint=eastwest;" parent="t7g00nan9s0jNHVQrBZP-517" vertex="1">
          <mxGeometry y="196" width="199" height="28" as="geometry" />
        </mxCell>
        <mxCell id="t7g00nan9s0jNHVQrBZP-525" value="+Date updatedAt" style="text;strokeColor=none;fillColor=none;align=left;verticalAlign=top;spacingLeft=4;spacingRight=4;overflow=hidden;rotatable=0;points=[[0,0.5],[1,0.5]];portConstraint=eastwest;" parent="t7g00nan9s0jNHVQrBZP-517" vertex="1">
          <mxGeometry y="224" width="199" height="28" as="geometry" />
        </mxCell>
        <mxCell id="t7g00nan9s0jNHVQrBZP-526" value="+Integer viewCount" style="text;strokeColor=none;fillColor=none;align=left;verticalAlign=top;spacingLeft=4;spacingRight=4;overflow=hidden;rotatable=0;points=[[0,0.5],[1,0.5]];portConstraint=eastwest;" parent="t7g00nan9s0jNHVQrBZP-517" vertex="1">
          <mxGeometry y="252" width="199" height="28" as="geometry" />
        </mxCell>
        <mxCell id="t7g00nan9s0jNHVQrBZP-527" value="+BlogStatus status" style="text;strokeColor=none;fillColor=none;align=left;verticalAlign=top;spacingLeft=4;spacingRight=4;overflow=hidden;rotatable=0;points=[[0,0.5],[1,0.5]];portConstraint=eastwest;" parent="t7g00nan9s0jNHVQrBZP-517" vertex="1">
          <mxGeometry y="280" width="199" height="28" as="geometry" />
        </mxCell>
        <mxCell id="t7g00nan9s0jNHVQrBZP-528" value="+String moderatorId" style="text;strokeColor=none;fillColor=none;align=left;verticalAlign=top;spacingLeft=4;spacingRight=4;overflow=hidden;rotatable=0;points=[[0,0.5],[1,0.5]];portConstraint=eastwest;" parent="t7g00nan9s0jNHVQrBZP-517" vertex="1">
          <mxGeometry y="308" width="199" height="28" as="geometry" />
        </mxCell>
        <mxCell id="t7g00nan9s0jNHVQrBZP-529" style="line;strokeWidth=1;fillColor=none;align=left;verticalAlign=middle;spacingTop=-1;spacingLeft=3;spacingRight=3;rotatable=0;labelPosition=right;points=[];portConstraint=eastwest;strokeColor=inherit;" parent="t7g00nan9s0jNHVQrBZP-517" vertex="1">
          <mxGeometry y="336" width="199" height="8" as="geometry" />
        </mxCell>
        <mxCell id="t7g00nan9s0jNHVQrBZP-530" value="+publishPost()" style="text;strokeColor=none;fillColor=none;align=left;verticalAlign=top;spacingLeft=4;spacingRight=4;overflow=hidden;rotatable=0;points=[[0,0.5],[1,0.5]];portConstraint=eastwest;" parent="t7g00nan9s0jNHVQrBZP-517" vertex="1">
          <mxGeometry y="344" width="199" height="28" as="geometry" />
        </mxCell>
        <mxCell id="t7g00nan9s0jNHVQrBZP-531" value="+editPost()" style="text;strokeColor=none;fillColor=none;align=left;verticalAlign=top;spacingLeft=4;spacingRight=4;overflow=hidden;rotatable=0;points=[[0,0.5],[1,0.5]];portConstraint=eastwest;" parent="t7g00nan9s0jNHVQrBZP-517" vertex="1">
          <mxGeometry y="372" width="199" height="28" as="geometry" />
        </mxCell>
        <mxCell id="t7g00nan9s0jNHVQrBZP-532" value="+deletePost()" style="text;strokeColor=none;fillColor=none;align=left;verticalAlign=top;spacingLeft=4;spacingRight=4;overflow=hidden;rotatable=0;points=[[0,0.5],[1,0.5]];portConstraint=eastwest;" parent="t7g00nan9s0jNHVQrBZP-517" vertex="1">
          <mxGeometry y="400" width="199" height="28" as="geometry" />
        </mxCell>
        <mxCell id="t7g00nan9s0jNHVQrBZP-533" value="+moderatePost()" style="text;strokeColor=none;fillColor=none;align=left;verticalAlign=top;spacingLeft=4;spacingRight=4;overflow=hidden;rotatable=0;points=[[0,0.5],[1,0.5]];portConstraint=eastwest;" parent="t7g00nan9s0jNHVQrBZP-517" vertex="1">
          <mxGeometry y="428" width="199" height="28" as="geometry" />
        </mxCell>
        <mxCell id="t7g00nan9s0jNHVQrBZP-540" value="Cabin" style="swimlane;fontStyle=1;align=center;verticalAlign=top;childLayout=stackLayout;horizontal=1;startSize=28.266666666666666;horizontalStack=0;resizeParent=1;resizeParentMax=0;resizeLast=0;collapsible=0;marginBottom=0;" parent="1" vertex="1">
          <mxGeometry x="2513" y="789.86" width="217" height="428.26666666666665" as="geometry" />
        </mxCell>
        <mxCell id="t7g00nan9s0jNHVQrBZP-541" value="+String cabinId" style="text;strokeColor=none;fillColor=none;align=left;verticalAlign=top;spacingLeft=4;spacingRight=4;overflow=hidden;rotatable=0;points=[[0,0.5],[1,0.5]];portConstraint=eastwest;" parent="t7g00nan9s0jNHVQrBZP-540" vertex="1">
          <mxGeometry y="28.266666666666666" width="217" height="28" as="geometry" />
        </mxCell>
        <mxCell id="t7g00nan9s0jNHVQrBZP-542" value="+String hospitalId" style="text;strokeColor=none;fillColor=none;align=left;verticalAlign=top;spacingLeft=4;spacingRight=4;overflow=hidden;rotatable=0;points=[[0,0.5],[1,0.5]];portConstraint=eastwest;" parent="t7g00nan9s0jNHVQrBZP-540" vertex="1">
          <mxGeometry y="56.266666666666666" width="217" height="28" as="geometry" />
        </mxCell>
        <mxCell id="t7g00nan9s0jNHVQrBZP-543" value="+String cabinNumber" style="text;strokeColor=none;fillColor=none;align=left;verticalAlign=top;spacingLeft=4;spacingRight=4;overflow=hidden;rotatable=0;points=[[0,0.5],[1,0.5]];portConstraint=eastwest;" parent="t7g00nan9s0jNHVQrBZP-540" vertex="1">
          <mxGeometry y="84.26666666666667" width="217" height="28" as="geometry" />
        </mxCell>
        <mxCell id="t7g00nan9s0jNHVQrBZP-544" value="+CabinType type" style="text;strokeColor=none;fillColor=none;align=left;verticalAlign=top;spacingLeft=4;spacingRight=4;overflow=hidden;rotatable=0;points=[[0,0.5],[1,0.5]];portConstraint=eastwest;" parent="t7g00nan9s0jNHVQrBZP-540" vertex="1">
          <mxGeometry y="112.26666666666667" width="217" height="28" as="geometry" />
        </mxCell>
        <mxCell id="t7g00nan9s0jNHVQrBZP-545" value="+CabinStatus status" style="text;strokeColor=none;fillColor=none;align=left;verticalAlign=top;spacingLeft=4;spacingRight=4;overflow=hidden;rotatable=0;points=[[0,0.5],[1,0.5]];portConstraint=eastwest;" parent="t7g00nan9s0jNHVQrBZP-540" vertex="1">
          <mxGeometry y="140.26666666666665" width="217" height="28" as="geometry" />
        </mxCell>
        <mxCell id="t7g00nan9s0jNHVQrBZP-546" value="+Double pricePerDay" style="text;strokeColor=none;fillColor=none;align=left;verticalAlign=top;spacingLeft=4;spacingRight=4;overflow=hidden;rotatable=0;points=[[0,0.5],[1,0.5]];portConstraint=eastwest;" parent="t7g00nan9s0jNHVQrBZP-540" vertex="1">
          <mxGeometry y="168.26666666666665" width="217" height="28" as="geometry" />
        </mxCell>
        <mxCell id="t7g00nan9s0jNHVQrBZP-547" value="+String floor" style="text;strokeColor=none;fillColor=none;align=left;verticalAlign=top;spacingLeft=4;spacingRight=4;overflow=hidden;rotatable=0;points=[[0,0.5],[1,0.5]];portConstraint=eastwest;" parent="t7g00nan9s0jNHVQrBZP-540" vertex="1">
          <mxGeometry y="196.26666666666665" width="217" height="28" as="geometry" />
        </mxCell>
        <mxCell id="t7g00nan9s0jNHVQrBZP-548" value="+List&lt;String&gt; amenities" style="text;strokeColor=none;fillColor=none;align=left;verticalAlign=top;spacingLeft=4;spacingRight=4;overflow=hidden;rotatable=0;points=[[0,0.5],[1,0.5]];portConstraint=eastwest;" parent="t7g00nan9s0jNHVQrBZP-540" vertex="1">
          <mxGeometry y="224.26666666666665" width="217" height="28" as="geometry" />
        </mxCell>
        <mxCell id="t7g00nan9s0jNHVQrBZP-549" value="+String currentPatientId" style="text;strokeColor=none;fillColor=none;align=left;verticalAlign=top;spacingLeft=4;spacingRight=4;overflow=hidden;rotatable=0;points=[[0,0.5],[1,0.5]];portConstraint=eastwest;" parent="t7g00nan9s0jNHVQrBZP-540" vertex="1">
          <mxGeometry y="252.26666666666665" width="217" height="28" as="geometry" />
        </mxCell>
        <mxCell id="t7g00nan9s0jNHVQrBZP-550" value="+Date occupiedFrom" style="text;strokeColor=none;fillColor=none;align=left;verticalAlign=top;spacingLeft=4;spacingRight=4;overflow=hidden;rotatable=0;points=[[0,0.5],[1,0.5]];portConstraint=eastwest;" parent="t7g00nan9s0jNHVQrBZP-540" vertex="1">
          <mxGeometry y="280.26666666666665" width="217" height="28" as="geometry" />
        </mxCell>
        <mxCell id="t7g00nan9s0jNHVQrBZP-551" value="+Date occupiedTo" style="text;strokeColor=none;fillColor=none;align=left;verticalAlign=top;spacingLeft=4;spacingRight=4;overflow=hidden;rotatable=0;points=[[0,0.5],[1,0.5]];portConstraint=eastwest;" parent="t7g00nan9s0jNHVQrBZP-540" vertex="1">
          <mxGeometry y="308.26666666666665" width="217" height="28" as="geometry" />
        </mxCell>
        <mxCell id="t7g00nan9s0jNHVQrBZP-552" style="line;strokeWidth=1;fillColor=none;align=left;verticalAlign=middle;spacingTop=-1;spacingLeft=3;spacingRight=3;rotatable=0;labelPosition=right;points=[];portConstraint=eastwest;strokeColor=inherit;" parent="t7g00nan9s0jNHVQrBZP-540" vertex="1">
          <mxGeometry y="336.26666666666665" width="217" height="8" as="geometry" />
        </mxCell>
        <mxCell id="t7g00nan9s0jNHVQrBZP-553" value="+bookCabin()" style="text;strokeColor=none;fillColor=none;align=left;verticalAlign=top;spacingLeft=4;spacingRight=4;overflow=hidden;rotatable=0;points=[[0,0.5],[1,0.5]];portConstraint=eastwest;" parent="t7g00nan9s0jNHVQrBZP-540" vertex="1">
          <mxGeometry y="344.26666666666665" width="217" height="28" as="geometry" />
        </mxCell>
        <mxCell id="t7g00nan9s0jNHVQrBZP-554" value="+releaseCabin()" style="text;strokeColor=none;fillColor=none;align=left;verticalAlign=top;spacingLeft=4;spacingRight=4;overflow=hidden;rotatable=0;points=[[0,0.5],[1,0.5]];portConstraint=eastwest;" parent="t7g00nan9s0jNHVQrBZP-540" vertex="1">
          <mxGeometry y="372.26666666666665" width="217" height="28" as="geometry" />
        </mxCell>
        <mxCell id="t7g00nan9s0jNHVQrBZP-555" value="+markMaintenance()" style="text;strokeColor=none;fillColor=none;align=left;verticalAlign=top;spacingLeft=4;spacingRight=4;overflow=hidden;rotatable=0;points=[[0,0.5],[1,0.5]];portConstraint=eastwest;" parent="t7g00nan9s0jNHVQrBZP-540" vertex="1">
          <mxGeometry y="400.26666666666665" width="217" height="28" as="geometry" />
        </mxCell>
        <mxCell id="t7g00nan9s0jNHVQrBZP-569" value="Equipment" style="swimlane;fontStyle=1;align=center;verticalAlign=top;childLayout=stackLayout;horizontal=1;startSize=28;horizontalStack=0;resizeParent=1;resizeParentMax=0;resizeLast=0;collapsible=0;marginBottom=0;" parent="1" vertex="1">
          <mxGeometry x="2827" y="573" width="241" height="456" as="geometry" />
        </mxCell>
        <mxCell id="t7g00nan9s0jNHVQrBZP-570" value="+String equipmentId" style="text;strokeColor=none;fillColor=none;align=left;verticalAlign=top;spacingLeft=4;spacingRight=4;overflow=hidden;rotatable=0;points=[[0,0.5],[1,0.5]];portConstraint=eastwest;" parent="t7g00nan9s0jNHVQrBZP-569" vertex="1">
          <mxGeometry y="28" width="241" height="28" as="geometry" />
        </mxCell>
        <mxCell id="t7g00nan9s0jNHVQrBZP-571" value="+String hospitalId" style="text;strokeColor=none;fillColor=none;align=left;verticalAlign=top;spacingLeft=4;spacingRight=4;overflow=hidden;rotatable=0;points=[[0,0.5],[1,0.5]];portConstraint=eastwest;" parent="t7g00nan9s0jNHVQrBZP-569" vertex="1">
          <mxGeometry y="56" width="241" height="28" as="geometry" />
        </mxCell>
        <mxCell id="t7g00nan9s0jNHVQrBZP-572" value="+String equipmentName" style="text;strokeColor=none;fillColor=none;align=left;verticalAlign=top;spacingLeft=4;spacingRight=4;overflow=hidden;rotatable=0;points=[[0,0.5],[1,0.5]];portConstraint=eastwest;" parent="t7g00nan9s0jNHVQrBZP-569" vertex="1">
          <mxGeometry y="84" width="241" height="28" as="geometry" />
        </mxCell>
        <mxCell id="t7g00nan9s0jNHVQrBZP-573" value="+String equipmentType" style="text;strokeColor=none;fillColor=none;align=left;verticalAlign=top;spacingLeft=4;spacingRight=4;overflow=hidden;rotatable=0;points=[[0,0.5],[1,0.5]];portConstraint=eastwest;" parent="t7g00nan9s0jNHVQrBZP-569" vertex="1">
          <mxGeometry y="112" width="241" height="28" as="geometry" />
        </mxCell>
        <mxCell id="t7g00nan9s0jNHVQrBZP-574" value="+String serialNumber" style="text;strokeColor=none;fillColor=none;align=left;verticalAlign=top;spacingLeft=4;spacingRight=4;overflow=hidden;rotatable=0;points=[[0,0.5],[1,0.5]];portConstraint=eastwest;" parent="t7g00nan9s0jNHVQrBZP-569" vertex="1">
          <mxGeometry y="140" width="241" height="28" as="geometry" />
        </mxCell>
        <mxCell id="t7g00nan9s0jNHVQrBZP-575" value="+EquipmentStatus status" style="text;strokeColor=none;fillColor=none;align=left;verticalAlign=top;spacingLeft=4;spacingRight=4;overflow=hidden;rotatable=0;points=[[0,0.5],[1,0.5]];portConstraint=eastwest;" parent="t7g00nan9s0jNHVQrBZP-569" vertex="1">
          <mxGeometry y="168" width="241" height="28" as="geometry" />
        </mxCell>
        <mxCell id="t7g00nan9s0jNHVQrBZP-576" value="+String currentUserId" style="text;strokeColor=none;fillColor=none;align=left;verticalAlign=top;spacingLeft=4;spacingRight=4;overflow=hidden;rotatable=0;points=[[0,0.5],[1,0.5]];portConstraint=eastwest;" parent="t7g00nan9s0jNHVQrBZP-569" vertex="1">
          <mxGeometry y="196" width="241" height="28" as="geometry" />
        </mxCell>
        <mxCell id="t7g00nan9s0jNHVQrBZP-577" value="+Date checkoutDate" style="text;strokeColor=none;fillColor=none;align=left;verticalAlign=top;spacingLeft=4;spacingRight=4;overflow=hidden;rotatable=0;points=[[0,0.5],[1,0.5]];portConstraint=eastwest;" parent="t7g00nan9s0jNHVQrBZP-569" vertex="1">
          <mxGeometry y="224" width="241" height="28" as="geometry" />
        </mxCell>
        <mxCell id="t7g00nan9s0jNHVQrBZP-578" value="+Date dueDate" style="text;strokeColor=none;fillColor=none;align=left;verticalAlign=top;spacingLeft=4;spacingRight=4;overflow=hidden;rotatable=0;points=[[0,0.5],[1,0.5]];portConstraint=eastwest;" parent="t7g00nan9s0jNHVQrBZP-569" vertex="1">
          <mxGeometry y="252" width="241" height="28" as="geometry" />
        </mxCell>
        <mxCell id="t7g00nan9s0jNHVQrBZP-579" value="+Date lastMaintenance" style="text;strokeColor=none;fillColor=none;align=left;verticalAlign=top;spacingLeft=4;spacingRight=4;overflow=hidden;rotatable=0;points=[[0,0.5],[1,0.5]];portConstraint=eastwest;" parent="t7g00nan9s0jNHVQrBZP-569" vertex="1">
          <mxGeometry y="280" width="241" height="28" as="geometry" />
        </mxCell>
        <mxCell id="t7g00nan9s0jNHVQrBZP-580" value="+Date nextMaintenance" style="text;strokeColor=none;fillColor=none;align=left;verticalAlign=top;spacingLeft=4;spacingRight=4;overflow=hidden;rotatable=0;points=[[0,0.5],[1,0.5]];portConstraint=eastwest;" parent="t7g00nan9s0jNHVQrBZP-569" vertex="1">
          <mxGeometry y="308" width="241" height="28" as="geometry" />
        </mxCell>
        <mxCell id="t7g00nan9s0jNHVQrBZP-581" style="line;strokeWidth=1;fillColor=none;align=left;verticalAlign=middle;spacingTop=-1;spacingLeft=3;spacingRight=3;rotatable=0;labelPosition=right;points=[];portConstraint=eastwest;strokeColor=inherit;" parent="t7g00nan9s0jNHVQrBZP-569" vertex="1">
          <mxGeometry y="336" width="241" height="8" as="geometry" />
        </mxCell>
        <mxCell id="t7g00nan9s0jNHVQrBZP-582" value="+checkOut()" style="text;strokeColor=none;fillColor=none;align=left;verticalAlign=top;spacingLeft=4;spacingRight=4;overflow=hidden;rotatable=0;points=[[0,0.5],[1,0.5]];portConstraint=eastwest;" parent="t7g00nan9s0jNHVQrBZP-569" vertex="1">
          <mxGeometry y="344" width="241" height="28" as="geometry" />
        </mxCell>
        <mxCell id="t7g00nan9s0jNHVQrBZP-583" value="+checkIn()" style="text;strokeColor=none;fillColor=none;align=left;verticalAlign=top;spacingLeft=4;spacingRight=4;overflow=hidden;rotatable=0;points=[[0,0.5],[1,0.5]];portConstraint=eastwest;" parent="t7g00nan9s0jNHVQrBZP-569" vertex="1">
          <mxGeometry y="372" width="241" height="28" as="geometry" />
        </mxCell>
        <mxCell id="t7g00nan9s0jNHVQrBZP-584" value="+scheduleMaintenance()" style="text;strokeColor=none;fillColor=none;align=left;verticalAlign=top;spacingLeft=4;spacingRight=4;overflow=hidden;rotatable=0;points=[[0,0.5],[1,0.5]];portConstraint=eastwest;" parent="t7g00nan9s0jNHVQrBZP-569" vertex="1">
          <mxGeometry y="400" width="241" height="28" as="geometry" />
        </mxCell>
        <mxCell id="t7g00nan9s0jNHVQrBZP-585" value="+markDefective()" style="text;strokeColor=none;fillColor=none;align=left;verticalAlign=top;spacingLeft=4;spacingRight=4;overflow=hidden;rotatable=0;points=[[0,0.5],[1,0.5]];portConstraint=eastwest;" parent="t7g00nan9s0jNHVQrBZP-569" vertex="1">
          <mxGeometry y="428" width="241" height="28" as="geometry" />
        </mxCell>
        <mxCell id="t7g00nan9s0jNHVQrBZP-695" value="Order" style="swimlane;fontStyle=1;align=center;verticalAlign=top;childLayout=stackLayout;horizontal=1;startSize=28.571428571428573;horizontalStack=0;resizeParent=1;resizeParentMax=0;resizeLast=0;collapsible=0;marginBottom=0;" parent="1" vertex="1">
          <mxGeometry x="1149" y="2232" width="288" height="413.57142857142856" as="geometry" />
        </mxCell>
        <mxCell id="t7g00nan9s0jNHVQrBZP-696" value="+String orderId" style="text;strokeColor=none;fillColor=none;align=left;verticalAlign=top;spacingLeft=4;spacingRight=4;overflow=hidden;rotatable=0;points=[[0,0.5],[1,0.5]];portConstraint=eastwest;" parent="t7g00nan9s0jNHVQrBZP-695" vertex="1">
          <mxGeometry y="28.571428571428573" width="288" height="29" as="geometry" />
        </mxCell>
        <mxCell id="t7g00nan9s0jNHVQrBZP-697" value="+String userId" style="text;strokeColor=none;fillColor=none;align=left;verticalAlign=top;spacingLeft=4;spacingRight=4;overflow=hidden;rotatable=0;points=[[0,0.5],[1,0.5]];portConstraint=eastwest;" parent="t7g00nan9s0jNHVQrBZP-695" vertex="1">
          <mxGeometry y="57.57142857142857" width="288" height="29" as="geometry" />
        </mxCell>
        <mxCell id="t7g00nan9s0jNHVQrBZP-698" value="+OrderType orderType" style="text;strokeColor=none;fillColor=none;align=left;verticalAlign=top;spacingLeft=4;spacingRight=4;overflow=hidden;rotatable=0;points=[[0,0.5],[1,0.5]];portConstraint=eastwest;" parent="t7g00nan9s0jNHVQrBZP-695" vertex="1">
          <mxGeometry y="86.57142857142857" width="288" height="29" as="geometry" />
        </mxCell>
        <mxCell id="t7g00nan9s0jNHVQrBZP-699" value="+String serviceId" style="text;strokeColor=none;fillColor=none;align=left;verticalAlign=top;spacingLeft=4;spacingRight=4;overflow=hidden;rotatable=0;points=[[0,0.5],[1,0.5]];portConstraint=eastwest;" parent="t7g00nan9s0jNHVQrBZP-695" vertex="1">
          <mxGeometry y="115.57142857142857" width="288" height="29" as="geometry" />
        </mxCell>
        <mxCell id="t7g00nan9s0jNHVQrBZP-700" value="+Double totalAmount" style="text;strokeColor=none;fillColor=none;align=left;verticalAlign=top;spacingLeft=4;spacingRight=4;overflow=hidden;rotatable=0;points=[[0,0.5],[1,0.5]];portConstraint=eastwest;" parent="t7g00nan9s0jNHVQrBZP-695" vertex="1">
          <mxGeometry y="144.57142857142856" width="288" height="29" as="geometry" />
        </mxCell>
        <mxCell id="t7g00nan9s0jNHVQrBZP-701" value="+OrderStatus status" style="text;strokeColor=none;fillColor=none;align=left;verticalAlign=top;spacingLeft=4;spacingRight=4;overflow=hidden;rotatable=0;points=[[0,0.5],[1,0.5]];portConstraint=eastwest;" parent="t7g00nan9s0jNHVQrBZP-695" vertex="1">
          <mxGeometry y="173.57142857142856" width="288" height="29" as="geometry" />
        </mxCell>
        <mxCell id="t7g00nan9s0jNHVQrBZP-702" value="+Date orderDate" style="text;strokeColor=none;fillColor=none;align=left;verticalAlign=top;spacingLeft=4;spacingRight=4;overflow=hidden;rotatable=0;points=[[0,0.5],[1,0.5]];portConstraint=eastwest;" parent="t7g00nan9s0jNHVQrBZP-695" vertex="1">
          <mxGeometry y="202.57142857142856" width="288" height="29" as="geometry" />
        </mxCell>
        <mxCell id="t7g00nan9s0jNHVQrBZP-703" value="+Date completedDate" style="text;strokeColor=none;fillColor=none;align=left;verticalAlign=top;spacingLeft=4;spacingRight=4;overflow=hidden;rotatable=0;points=[[0,0.5],[1,0.5]];portConstraint=eastwest;" parent="t7g00nan9s0jNHVQrBZP-695" vertex="1">
          <mxGeometry y="231.57142857142856" width="288" height="29" as="geometry" />
        </mxCell>
        <mxCell id="t7g00nan9s0jNHVQrBZP-704" value="+PaymentMethod paymentMethod" style="text;strokeColor=none;fillColor=none;align=left;verticalAlign=top;spacingLeft=4;spacingRight=4;overflow=hidden;rotatable=0;points=[[0,0.5],[1,0.5]];portConstraint=eastwest;" parent="t7g00nan9s0jNHVQrBZP-695" vertex="1">
          <mxGeometry y="260.57142857142856" width="288" height="29" as="geometry" />
        </mxCell>
        <mxCell id="t7g00nan9s0jNHVQrBZP-705" style="line;strokeWidth=1;fillColor=none;align=left;verticalAlign=middle;spacingTop=-1;spacingLeft=3;spacingRight=3;rotatable=0;labelPosition=right;points=[];portConstraint=eastwest;strokeColor=inherit;" parent="t7g00nan9s0jNHVQrBZP-695" vertex="1">
          <mxGeometry y="289.57142857142856" width="288" height="8" as="geometry" />
        </mxCell>
        <mxCell id="t7g00nan9s0jNHVQrBZP-706" value="+createOrder()" style="text;strokeColor=none;fillColor=none;align=left;verticalAlign=top;spacingLeft=4;spacingRight=4;overflow=hidden;rotatable=0;points=[[0,0.5],[1,0.5]];portConstraint=eastwest;" parent="t7g00nan9s0jNHVQrBZP-695" vertex="1">
          <mxGeometry y="297.57142857142856" width="288" height="29" as="geometry" />
        </mxCell>
        <mxCell id="t7g00nan9s0jNHVQrBZP-707" value="+processPayment()" style="text;strokeColor=none;fillColor=none;align=left;verticalAlign=top;spacingLeft=4;spacingRight=4;overflow=hidden;rotatable=0;points=[[0,0.5],[1,0.5]];portConstraint=eastwest;" parent="t7g00nan9s0jNHVQrBZP-695" vertex="1">
          <mxGeometry y="326.57142857142856" width="288" height="29" as="geometry" />
        </mxCell>
        <mxCell id="t7g00nan9s0jNHVQrBZP-708" value="+cancelOrder()" style="text;strokeColor=none;fillColor=none;align=left;verticalAlign=top;spacingLeft=4;spacingRight=4;overflow=hidden;rotatable=0;points=[[0,0.5],[1,0.5]];portConstraint=eastwest;" parent="t7g00nan9s0jNHVQrBZP-695" vertex="1">
          <mxGeometry y="355.57142857142856" width="288" height="29" as="geometry" />
        </mxCell>
        <mxCell id="t7g00nan9s0jNHVQrBZP-709" value="+completeOrder()" style="text;strokeColor=none;fillColor=none;align=left;verticalAlign=top;spacingLeft=4;spacingRight=4;overflow=hidden;rotatable=0;points=[[0,0.5],[1,0.5]];portConstraint=eastwest;" parent="t7g00nan9s0jNHVQrBZP-695" vertex="1">
          <mxGeometry y="384.57142857142856" width="288" height="29" as="geometry" />
        </mxCell>
        <mxCell id="t7g00nan9s0jNHVQrBZP-724" value="Location" style="swimlane;fontStyle=1;align=center;verticalAlign=top;childLayout=stackLayout;horizontal=1;startSize=30.4;horizontalStack=0;resizeParent=1;resizeParentMax=0;resizeLast=0;collapsible=0;marginBottom=0;" parent="1" vertex="1">
          <mxGeometry x="2730" y="1770" width="188" height="308.4" as="geometry" />
        </mxCell>
        <mxCell id="t7g00nan9s0jNHVQrBZP-725" value="+Double latitude" style="text;strokeColor=none;fillColor=none;align=left;verticalAlign=top;spacingLeft=4;spacingRight=4;overflow=hidden;rotatable=0;points=[[0,0.5],[1,0.5]];portConstraint=eastwest;" parent="t7g00nan9s0jNHVQrBZP-724" vertex="1">
          <mxGeometry y="30.4" width="188" height="30" as="geometry" />
        </mxCell>
        <mxCell id="t7g00nan9s0jNHVQrBZP-726" value="+Double longitude" style="text;strokeColor=none;fillColor=none;align=left;verticalAlign=top;spacingLeft=4;spacingRight=4;overflow=hidden;rotatable=0;points=[[0,0.5],[1,0.5]];portConstraint=eastwest;" parent="t7g00nan9s0jNHVQrBZP-724" vertex="1">
          <mxGeometry y="60.4" width="188" height="30" as="geometry" />
        </mxCell>
        <mxCell id="t7g00nan9s0jNHVQrBZP-727" value="+String address" style="text;strokeColor=none;fillColor=none;align=left;verticalAlign=top;spacingLeft=4;spacingRight=4;overflow=hidden;rotatable=0;points=[[0,0.5],[1,0.5]];portConstraint=eastwest;" parent="t7g00nan9s0jNHVQrBZP-724" vertex="1">
          <mxGeometry y="90.4" width="188" height="30" as="geometry" />
        </mxCell>
        <mxCell id="t7g00nan9s0jNHVQrBZP-728" value="+String city" style="text;strokeColor=none;fillColor=none;align=left;verticalAlign=top;spacingLeft=4;spacingRight=4;overflow=hidden;rotatable=0;points=[[0,0.5],[1,0.5]];portConstraint=eastwest;" parent="t7g00nan9s0jNHVQrBZP-724" vertex="1">
          <mxGeometry y="120.4" width="188" height="30" as="geometry" />
        </mxCell>
        <mxCell id="t7g00nan9s0jNHVQrBZP-729" value="+String state" style="text;strokeColor=none;fillColor=none;align=left;verticalAlign=top;spacingLeft=4;spacingRight=4;overflow=hidden;rotatable=0;points=[[0,0.5],[1,0.5]];portConstraint=eastwest;" parent="t7g00nan9s0jNHVQrBZP-724" vertex="1">
          <mxGeometry y="150.4" width="188" height="30" as="geometry" />
        </mxCell>
        <mxCell id="t7g00nan9s0jNHVQrBZP-730" value="+String zipCode" style="text;strokeColor=none;fillColor=none;align=left;verticalAlign=top;spacingLeft=4;spacingRight=4;overflow=hidden;rotatable=0;points=[[0,0.5],[1,0.5]];portConstraint=eastwest;" parent="t7g00nan9s0jNHVQrBZP-724" vertex="1">
          <mxGeometry y="180.4" width="188" height="30" as="geometry" />
        </mxCell>
        <mxCell id="t7g00nan9s0jNHVQrBZP-731" value="+String country" style="text;strokeColor=none;fillColor=none;align=left;verticalAlign=top;spacingLeft=4;spacingRight=4;overflow=hidden;rotatable=0;points=[[0,0.5],[1,0.5]];portConstraint=eastwest;" parent="t7g00nan9s0jNHVQrBZP-724" vertex="1">
          <mxGeometry y="210.4" width="188" height="30" as="geometry" />
        </mxCell>
        <mxCell id="t7g00nan9s0jNHVQrBZP-732" style="line;strokeWidth=1;fillColor=none;align=left;verticalAlign=middle;spacingTop=-1;spacingLeft=3;spacingRight=3;rotatable=0;labelPosition=right;points=[];portConstraint=eastwest;strokeColor=inherit;" parent="t7g00nan9s0jNHVQrBZP-724" vertex="1">
          <mxGeometry y="240.4" width="188" height="8" as="geometry" />
        </mxCell>
        <mxCell id="t7g00nan9s0jNHVQrBZP-733" value="+updateLocation()" style="text;strokeColor=none;fillColor=none;align=left;verticalAlign=top;spacingLeft=4;spacingRight=4;overflow=hidden;rotatable=0;points=[[0,0.5],[1,0.5]];portConstraint=eastwest;" parent="t7g00nan9s0jNHVQrBZP-724" vertex="1">
          <mxGeometry y="248.4" width="188" height="30" as="geometry" />
        </mxCell>
        <mxCell id="t7g00nan9s0jNHVQrBZP-734" value="+getDistance()" style="text;strokeColor=none;fillColor=none;align=left;verticalAlign=top;spacingLeft=4;spacingRight=4;overflow=hidden;rotatable=0;points=[[0,0.5],[1,0.5]];portConstraint=eastwest;" parent="t7g00nan9s0jNHVQrBZP-724" vertex="1">
          <mxGeometry y="278.4" width="188" height="30" as="geometry" />
        </mxCell>
        <mxCell id="t7g00nan9s0jNHVQrBZP-735" value="UserReport" style="swimlane;fontStyle=1;align=center;verticalAlign=top;childLayout=stackLayout;horizontal=1;startSize=28.571428571428573;horizontalStack=0;resizeParent=1;resizeParentMax=0;resizeLast=0;collapsible=0;marginBottom=0;" parent="1" vertex="1">
          <mxGeometry x="2160" y="1780" width="254" height="413.57142857142856" as="geometry" />
        </mxCell>
        <mxCell id="t7g00nan9s0jNHVQrBZP-736" value="+String reportId" style="text;strokeColor=none;fillColor=none;align=left;verticalAlign=top;spacingLeft=4;spacingRight=4;overflow=hidden;rotatable=0;points=[[0,0.5],[1,0.5]];portConstraint=eastwest;" parent="t7g00nan9s0jNHVQrBZP-735" vertex="1">
          <mxGeometry y="28.571428571428573" width="254" height="29" as="geometry" />
        </mxCell>
        <mxCell id="t7g00nan9s0jNHVQrBZP-737" value="+String reporterId" style="text;strokeColor=none;fillColor=none;align=left;verticalAlign=top;spacingLeft=4;spacingRight=4;overflow=hidden;rotatable=0;points=[[0,0.5],[1,0.5]];portConstraint=eastwest;" parent="t7g00nan9s0jNHVQrBZP-735" vertex="1">
          <mxGeometry y="57.57142857142857" width="254" height="29" as="geometry" />
        </mxCell>
        <mxCell id="t7g00nan9s0jNHVQrBZP-738" value="+String reportedUserId" style="text;strokeColor=none;fillColor=none;align=left;verticalAlign=top;spacingLeft=4;spacingRight=4;overflow=hidden;rotatable=0;points=[[0,0.5],[1,0.5]];portConstraint=eastwest;" parent="t7g00nan9s0jNHVQrBZP-735" vertex="1">
          <mxGeometry y="86.57142857142857" width="254" height="29" as="geometry" />
        </mxCell>
        <mxCell id="t7g00nan9s0jNHVQrBZP-739" value="+String reportedContentId" style="text;strokeColor=none;fillColor=none;align=left;verticalAlign=top;spacingLeft=4;spacingRight=4;overflow=hidden;rotatable=0;points=[[0,0.5],[1,0.5]];portConstraint=eastwest;" parent="t7g00nan9s0jNHVQrBZP-735" vertex="1">
          <mxGeometry y="115.57142857142857" width="254" height="29" as="geometry" />
        </mxCell>
        <mxCell id="t7g00nan9s0jNHVQrBZP-740" value="+ReportType reportType" style="text;strokeColor=none;fillColor=none;align=left;verticalAlign=top;spacingLeft=4;spacingRight=4;overflow=hidden;rotatable=0;points=[[0,0.5],[1,0.5]];portConstraint=eastwest;" parent="t7g00nan9s0jNHVQrBZP-735" vertex="1">
          <mxGeometry y="144.57142857142856" width="254" height="29" as="geometry" />
        </mxCell>
        <mxCell id="t7g00nan9s0jNHVQrBZP-741" value="+String reason" style="text;strokeColor=none;fillColor=none;align=left;verticalAlign=top;spacingLeft=4;spacingRight=4;overflow=hidden;rotatable=0;points=[[0,0.5],[1,0.5]];portConstraint=eastwest;" parent="t7g00nan9s0jNHVQrBZP-735" vertex="1">
          <mxGeometry y="173.57142857142856" width="254" height="29" as="geometry" />
        </mxCell>
        <mxCell id="t7g00nan9s0jNHVQrBZP-742" value="+String description" style="text;strokeColor=none;fillColor=none;align=left;verticalAlign=top;spacingLeft=4;spacingRight=4;overflow=hidden;rotatable=0;points=[[0,0.5],[1,0.5]];portConstraint=eastwest;" parent="t7g00nan9s0jNHVQrBZP-735" vertex="1">
          <mxGeometry y="202.57142857142856" width="254" height="29" as="geometry" />
        </mxCell>
        <mxCell id="t7g00nan9s0jNHVQrBZP-743" value="+Date reportDate" style="text;strokeColor=none;fillColor=none;align=left;verticalAlign=top;spacingLeft=4;spacingRight=4;overflow=hidden;rotatable=0;points=[[0,0.5],[1,0.5]];portConstraint=eastwest;" parent="t7g00nan9s0jNHVQrBZP-735" vertex="1">
          <mxGeometry y="231.57142857142856" width="254" height="29" as="geometry" />
        </mxCell>
        <mxCell id="t7g00nan9s0jNHVQrBZP-744" value="+ReportStatus status" style="text;strokeColor=none;fillColor=none;align=left;verticalAlign=top;spacingLeft=4;spacingRight=4;overflow=hidden;rotatable=0;points=[[0,0.5],[1,0.5]];portConstraint=eastwest;" parent="t7g00nan9s0jNHVQrBZP-735" vertex="1">
          <mxGeometry y="260.57142857142856" width="254" height="29" as="geometry" />
        </mxCell>
        <mxCell id="t7g00nan9s0jNHVQrBZP-745" value="+String moderatorId" style="text;strokeColor=none;fillColor=none;align=left;verticalAlign=top;spacingLeft=4;spacingRight=4;overflow=hidden;rotatable=0;points=[[0,0.5],[1,0.5]];portConstraint=eastwest;" parent="t7g00nan9s0jNHVQrBZP-735" vertex="1">
          <mxGeometry y="289.57142857142856" width="254" height="29" as="geometry" />
        </mxCell>
        <mxCell id="t7g00nan9s0jNHVQrBZP-746" style="line;strokeWidth=1;fillColor=none;align=left;verticalAlign=middle;spacingTop=-1;spacingLeft=3;spacingRight=3;rotatable=0;labelPosition=right;points=[];portConstraint=eastwest;strokeColor=inherit;" parent="t7g00nan9s0jNHVQrBZP-735" vertex="1">
          <mxGeometry y="318.57142857142856" width="254" height="8" as="geometry" />
        </mxCell>
        <mxCell id="t7g00nan9s0jNHVQrBZP-747" value="+submitReport()" style="text;strokeColor=none;fillColor=none;align=left;verticalAlign=top;spacingLeft=4;spacingRight=4;overflow=hidden;rotatable=0;points=[[0,0.5],[1,0.5]];portConstraint=eastwest;" parent="t7g00nan9s0jNHVQrBZP-735" vertex="1">
          <mxGeometry y="326.57142857142856" width="254" height="29" as="geometry" />
        </mxCell>
        <mxCell id="t7g00nan9s0jNHVQrBZP-748" value="+investigateReport()" style="text;strokeColor=none;fillColor=none;align=left;verticalAlign=top;spacingLeft=4;spacingRight=4;overflow=hidden;rotatable=0;points=[[0,0.5],[1,0.5]];portConstraint=eastwest;" parent="t7g00nan9s0jNHVQrBZP-735" vertex="1">
          <mxGeometry y="355.57142857142856" width="254" height="29" as="geometry" />
        </mxCell>
        <mxCell id="t7g00nan9s0jNHVQrBZP-749" value="+resolveReport()" style="text;strokeColor=none;fillColor=none;align=left;verticalAlign=top;spacingLeft=4;spacingRight=4;overflow=hidden;rotatable=0;points=[[0,0.5],[1,0.5]];portConstraint=eastwest;" parent="t7g00nan9s0jNHVQrBZP-735" vertex="1">
          <mxGeometry y="384.57142857142856" width="254" height="29" as="geometry" />
        </mxCell>
        <mxCell id="t7g00nan9s0jNHVQrBZP-763" value="SystemSettings" style="swimlane;fontStyle=1;align=center;verticalAlign=top;childLayout=stackLayout;horizontal=1;startSize=31.11111111111111;horizontalStack=0;resizeParent=1;resizeParentMax=0;resizeLast=0;collapsible=0;marginBottom=0;" parent="1" vertex="1">
          <mxGeometry x="768" y="1234" width="223" height="287.1111111111111" as="geometry" />
        </mxCell>
        <mxCell id="t7g00nan9s0jNHVQrBZP-764" value="+String settingId" style="text;strokeColor=none;fillColor=none;align=left;verticalAlign=top;spacingLeft=4;spacingRight=4;overflow=hidden;rotatable=0;points=[[0,0.5],[1,0.5]];portConstraint=eastwest;" parent="t7g00nan9s0jNHVQrBZP-763" vertex="1">
          <mxGeometry y="31.11111111111111" width="223" height="31" as="geometry" />
        </mxCell>
        <mxCell id="t7g00nan9s0jNHVQrBZP-765" value="+String settingKey" style="text;strokeColor=none;fillColor=none;align=left;verticalAlign=top;spacingLeft=4;spacingRight=4;overflow=hidden;rotatable=0;points=[[0,0.5],[1,0.5]];portConstraint=eastwest;" parent="t7g00nan9s0jNHVQrBZP-763" vertex="1">
          <mxGeometry y="62.111111111111114" width="223" height="31" as="geometry" />
        </mxCell>
        <mxCell id="t7g00nan9s0jNHVQrBZP-766" value="+String settingValue" style="text;strokeColor=none;fillColor=none;align=left;verticalAlign=top;spacingLeft=4;spacingRight=4;overflow=hidden;rotatable=0;points=[[0,0.5],[1,0.5]];portConstraint=eastwest;" parent="t7g00nan9s0jNHVQrBZP-763" vertex="1">
          <mxGeometry y="93.11111111111111" width="223" height="31" as="geometry" />
        </mxCell>
        <mxCell id="t7g00nan9s0jNHVQrBZP-767" value="+String description" style="text;strokeColor=none;fillColor=none;align=left;verticalAlign=top;spacingLeft=4;spacingRight=4;overflow=hidden;rotatable=0;points=[[0,0.5],[1,0.5]];portConstraint=eastwest;" parent="t7g00nan9s0jNHVQrBZP-763" vertex="1">
          <mxGeometry y="124.11111111111111" width="223" height="31" as="geometry" />
        </mxCell>
        <mxCell id="t7g00nan9s0jNHVQrBZP-768" value="+Date updatedAt" style="text;strokeColor=none;fillColor=none;align=left;verticalAlign=top;spacingLeft=4;spacingRight=4;overflow=hidden;rotatable=0;points=[[0,0.5],[1,0.5]];portConstraint=eastwest;" parent="t7g00nan9s0jNHVQrBZP-763" vertex="1">
          <mxGeometry y="155.11111111111111" width="223" height="31" as="geometry" />
        </mxCell>
        <mxCell id="t7g00nan9s0jNHVQrBZP-769" value="+String updatedBy" style="text;strokeColor=none;fillColor=none;align=left;verticalAlign=top;spacingLeft=4;spacingRight=4;overflow=hidden;rotatable=0;points=[[0,0.5],[1,0.5]];portConstraint=eastwest;" parent="t7g00nan9s0jNHVQrBZP-763" vertex="1">
          <mxGeometry y="186.11111111111111" width="223" height="31" as="geometry" />
        </mxCell>
        <mxCell id="t7g00nan9s0jNHVQrBZP-770" style="line;strokeWidth=1;fillColor=none;align=left;verticalAlign=middle;spacingTop=-1;spacingLeft=3;spacingRight=3;rotatable=0;labelPosition=right;points=[];portConstraint=eastwest;strokeColor=inherit;" parent="t7g00nan9s0jNHVQrBZP-763" vertex="1">
          <mxGeometry y="217.11111111111111" width="223" height="8" as="geometry" />
        </mxCell>
        <mxCell id="t7g00nan9s0jNHVQrBZP-771" value="+updateSetting()" style="text;strokeColor=none;fillColor=none;align=left;verticalAlign=top;spacingLeft=4;spacingRight=4;overflow=hidden;rotatable=0;points=[[0,0.5],[1,0.5]];portConstraint=eastwest;" parent="t7g00nan9s0jNHVQrBZP-763" vertex="1">
          <mxGeometry y="225.11111111111111" width="223" height="31" as="geometry" />
        </mxCell>
        <mxCell id="t7g00nan9s0jNHVQrBZP-772" value="+getSetting()" style="text;strokeColor=none;fillColor=none;align=left;verticalAlign=top;spacingLeft=4;spacingRight=4;overflow=hidden;rotatable=0;points=[[0,0.5],[1,0.5]];portConstraint=eastwest;" parent="t7g00nan9s0jNHVQrBZP-763" vertex="1">
          <mxGeometry y="256.1111111111111" width="223" height="31" as="geometry" />
        </mxCell>
        <mxCell id="t7g00nan9s0jNHVQrBZP-773" value="&quot;books&quot;" style="curved=1;startArrow=none;endArrow=open;endSize=12;exitX=0;exitY=0.61;entryX=1;entryY=0.36;rounded=0;" parent="1" source="t7g00nan9s0jNHVQrBZP-401" target="t7g00nan9s0jNHVQrBZP-473" edge="1">
          <mxGeometry relative="1" as="geometry">
            <Array as="points">
              <mxPoint x="912" y="1667" />
            </Array>
          </mxGeometry>
        </mxCell>
        <mxCell id="t7g00nan9s0jNHVQrBZP-774" value="&quot;accepts&quot;" style="curved=1;startArrow=none;endArrow=open;endSize=12;exitX=0;exitY=0.94;entryX=0;entryY=0.29;rounded=0;" parent="1" source="t7g00nan9s0jNHVQrBZP-420" target="t7g00nan9s0jNHVQrBZP-473" edge="1">
          <mxGeometry relative="1" as="geometry">
            <Array as="points">
              <mxPoint x="20" y="1090" />
              <mxPoint x="20" y="1667" />
            </Array>
          </mxGeometry>
        </mxCell>
        <mxCell id="t7g00nan9s0jNHVQrBZP-775" value="&quot;employs&quot;" style="curved=1;startArrow=none;endArrow=open;endSize=12;exitX=0;exitY=0.55;entryX=0.5;entryY=0;rounded=0;" parent="1" source="t7g00nan9s0jNHVQrBZP-439" target="t7g00nan9s0jNHVQrBZP-420" edge="1">
          <mxGeometry relative="1" as="geometry">
            <Array as="points">
              <mxPoint x="193" y="513" />
            </Array>
          </mxGeometry>
        </mxCell>
        <mxCell id="t7g00nan9s0jNHVQrBZP-776" value="&quot;writes&quot;" style="curved=1;startArrow=none;endArrow=open;endSize=12;exitX=0;exitY=0.72;entryX=0;entryY=0.3;rounded=0;" parent="1" source="t7g00nan9s0jNHVQrBZP-401" target="t7g00nan9s0jNHVQrBZP-497" edge="1">
          <mxGeometry relative="1" as="geometry">
            <Array as="points">
              <mxPoint x="1158" y="1667" />
            </Array>
          </mxGeometry>
        </mxCell>
        <mxCell id="t7g00nan9s0jNHVQrBZP-777" value="&quot;receives&quot;" style="curved=1;startArrow=none;endArrow=open;endSize=12;exitX=0.23;exitY=1;entryX=0;entryY=0.45;rounded=0;" parent="1" source="t7g00nan9s0jNHVQrBZP-420" target="t7g00nan9s0jNHVQrBZP-497" edge="1">
          <mxGeometry relative="1" as="geometry">
            <Array as="points">
              <mxPoint x="111" y="1090" />
              <mxPoint x="111" y="1667" />
            </Array>
          </mxGeometry>
        </mxCell>
        <mxCell id="t7g00nan9s0jNHVQrBZP-778" value="&quot;receives&quot;" style="curved=1;startArrow=none;endArrow=open;endSize=12;exitX=1;exitY=0.57;entryX=1;entryY=0.43;rounded=0;" parent="1" source="t7g00nan9s0jNHVQrBZP-439" target="t7g00nan9s0jNHVQrBZP-497" edge="1">
          <mxGeometry relative="1" as="geometry">
            <Array as="points">
              <mxPoint x="2524" y="513" />
              <mxPoint x="2524" y="1667" />
            </Array>
          </mxGeometry>
        </mxCell>
        <mxCell id="t7g00nan9s0jNHVQrBZP-779" value="&quot;writes&quot;" style="curved=1;startArrow=none;endArrow=open;endSize=12;exitX=0.79;exitY=1;entryX=0.29;entryY=0;rounded=0;" parent="1" source="t7g00nan9s0jNHVQrBZP-420" target="t7g00nan9s0jNHVQrBZP-517" edge="1">
          <mxGeometry relative="1" as="geometry">
            <Array as="points">
              <mxPoint x="282" y="1090" />
            </Array>
          </mxGeometry>
        </mxCell>
        <mxCell id="t7g00nan9s0jNHVQrBZP-780" value="&quot;moderates&quot;" style="curved=1;startArrow=none;endArrow=open;endSize=12;exitX=0;exitY=0.98;entryX=1;entryY=0.46;rounded=0;" parent="1" source="t7g00nan9s0jNHVQrBZP-465" target="t7g00nan9s0jNHVQrBZP-517" edge="1">
          <mxGeometry relative="1" as="geometry">
            <Array as="points">
              <mxPoint x="2036" y="1090" />
            </Array>
          </mxGeometry>
        </mxCell>
        <mxCell id="t7g00nan9s0jNHVQrBZP-781" value="&quot;manages&quot;" style="curved=1;startArrow=none;endArrow=diamondThin;endSize=14;endFill=1;exitX=1;exitY=0.56;entryX=0.5;entryY=0;rounded=0;" parent="1" source="t7g00nan9s0jNHVQrBZP-439" target="t7g00nan9s0jNHVQrBZP-540" edge="1">
          <mxGeometry relative="1" as="geometry">
            <Array as="points">
              <mxPoint x="2668" y="513" />
            </Array>
          </mxGeometry>
        </mxCell>
        <mxCell id="t7g00nan9s0jNHVQrBZP-782" value="&quot;owns&quot;" style="curved=1;startArrow=none;endArrow=diamondThin;endSize=14;endFill=1;exitX=1;exitY=0.55;entryX=0.5;entryY=0;rounded=0;" parent="1" source="t7g00nan9s0jNHVQrBZP-439" target="t7g00nan9s0jNHVQrBZP-569" edge="1">
          <mxGeometry relative="1" as="geometry">
            <Array as="points">
              <mxPoint x="2700" y="330" />
            </Array>
          </mxGeometry>
        </mxCell>
        <mxCell id="t7g00nan9s0jNHVQrBZP-783" value="&quot;operates&quot;" style="curved=1;startArrow=none;endArrow=diamondThin;endSize=14;endFill=1;exitX=1;exitY=0.54;entryX=0.5;entryY=0;rounded=0;" parent="1" source="t7g00nan9s0jNHVQrBZP-439" target="t7g00nan9s0jNHVQrBZP-592" edge="1">
          <mxGeometry relative="1" as="geometry">
            <Array as="points">
              <mxPoint x="3141" y="513" />
            </Array>
          </mxGeometry>
        </mxCell>
        <mxCell id="t7g00nan9s0jNHVQrBZP-789" value="&quot;places&quot;" style="curved=1;startArrow=none;endArrow=open;endSize=12;exitX=1;exitY=0.58;entryX=1;entryY=0.4;rounded=0;" parent="1" source="t7g00nan9s0jNHVQrBZP-401" target="t7g00nan9s0jNHVQrBZP-695" edge="1">
          <mxGeometry relative="1" as="geometry">
            <Array as="points">
              <mxPoint x="2124" y="1667" />
              <mxPoint x="2124" y="2196" />
            </Array>
          </mxGeometry>
        </mxCell>
        <mxCell id="t7g00nan9s0jNHVQrBZP-790" value="&quot;generates&quot;" style="curved=1;startArrow=none;endArrow=open;endSize=12;exitX=0.5;exitY=1;entryX=0;entryY=0.41;rounded=0;" parent="1" source="t7g00nan9s0jNHVQrBZP-473" target="t7g00nan9s0jNHVQrBZP-695" edge="1">
          <mxGeometry relative="1" as="geometry">
            <Array as="points">
              <mxPoint x="379" y="2196" />
            </Array>
          </mxGeometry>
        </mxCell>
        <mxCell id="t7g00nan9s0jNHVQrBZP-791" value="&quot;submits&quot;" style="curved=1;startArrow=none;endArrow=open;endSize=12;exitX=1;exitY=0.57;entryX=0.29;entryY=0;rounded=0;" parent="1" source="t7g00nan9s0jNHVQrBZP-401" target="t7g00nan9s0jNHVQrBZP-735" edge="1">
          <mxGeometry relative="1" as="geometry">
            <Array as="points">
              <mxPoint x="2248" y="1667" />
            </Array>
          </mxGeometry>
        </mxCell>
        <mxCell id="t7g00nan9s0jNHVQrBZP-792" value="&quot;handles&quot;" style="curved=1;startArrow=none;endArrow=open;endSize=12;exitX=0.56;exitY=1;entryX=0.67;entryY=0;rounded=0;" parent="1" source="t7g00nan9s0jNHVQrBZP-465" target="t7g00nan9s0jNHVQrBZP-735" edge="1">
          <mxGeometry relative="1" as="geometry">
            <Array as="points">
              <mxPoint x="2240" y="1450" />
            </Array>
          </mxGeometry>
        </mxCell>
        <mxCell id="t7g00nan9s0jNHVQrBZP-793" value="&quot;manages&quot;" style="curved=1;startArrow=none;endArrow=open;endSize=12;exitX=0;exitY=0.78;entryX=0.38;entryY=0;rounded=0;" parent="1" source="t7g00nan9s0jNHVQrBZP-456" target="t7g00nan9s0jNHVQrBZP-763" edge="1">
          <mxGeometry relative="1" as="geometry">
            <Array as="points">
              <mxPoint x="826" y="1090" />
            </Array>
          </mxGeometry>
        </mxCell>
        <mxCell id="t7g00nan9s0jNHVQrBZP-794" value="&quot;has&quot;" style="curved=1;startArrow=none;endArrow=diamondThin;endSize=14;endFill=0;exitX=1;exitY=0.56;entryX=0;entryY=0.4;rounded=0;" parent="1" source="t7g00nan9s0jNHVQrBZP-401" target="t7g00nan9s0jNHVQrBZP-724" edge="1">
          <mxGeometry relative="1" as="geometry">
            <Array as="points">
              <mxPoint x="2321" y="1667" />
            </Array>
          </mxGeometry>
        </mxCell>
        <mxCell id="t7g00nan9s0jNHVQrBZP-795" value="&quot;located at&quot;" style="curved=1;startArrow=none;endArrow=diamondThin;endSize=14;endFill=0;exitX=1;exitY=0.54;entryX=1;entryY=0.04;rounded=0;" parent="1" source="t7g00nan9s0jNHVQrBZP-439" target="t7g00nan9s0jNHVQrBZP-724" edge="1">
          <mxGeometry relative="1" as="geometry">
            <Array as="points">
              <mxPoint x="3303" y="513" />
              <mxPoint x="3303" y="1667" />
            </Array>
          </mxGeometry>
        </mxCell>
        <mxCell id="t7g00nan9s0jNHVQrBZP-796" value="&quot;current position&quot;" style="curved=1;startArrow=none;endArrow=diamondThin;endSize=14;endFill=0;exitX=0.5;exitY=1;entryX=0.53;entryY=0;rounded=0;" parent="1" source="t7g00nan9s0jNHVQrBZP-592" target="t7g00nan9s0jNHVQrBZP-724" edge="1">
          <mxGeometry relative="1" as="geometry">
            <Array as="points">
              <mxPoint x="3141" y="1667" />
            </Array>
          </mxGeometry>
        </mxCell>
        <mxCell id="t7g00nan9s0jNHVQrBZP-797" value="&quot;extends&quot;" style="curved=1;startArrow=none;endArrow=block;endSize=16;endFill=0;exitX=1;exitY=0.71;entryX=0;entryY=0.44;rounded=0;" parent="1" source="t7g00nan9s0jNHVQrBZP-420" target="t7g00nan9s0jNHVQrBZP-401" edge="1">
          <mxGeometry relative="1" as="geometry">
            <Array as="points">
              <mxPoint x="549" y="1090" />
            </Array>
          </mxGeometry>
        </mxCell>
        <mxCell id="t7g00nan9s0jNHVQrBZP-798" value="&quot;extends&quot;" style="curved=1;startArrow=none;endArrow=block;endSize=16;endFill=0;exitX=1;exitY=0.54;entryX=1;entryY=0.47;rounded=0;" parent="1" source="t7g00nan9s0jNHVQrBZP-592" target="t7g00nan9s0jNHVQrBZP-401" edge="1">
          <mxGeometry relative="1" as="geometry">
            <Array as="points">
              <mxPoint x="3180" y="950" />
              <mxPoint x="2170" y="1130" />
            </Array>
          </mxGeometry>
        </mxCell>
        <mxCell id="t7g00nan9s0jNHVQrBZP-799" value="&quot;extends&quot;" style="curved=1;startArrow=none;endArrow=block;endSize=16;endFill=0;exitX=0.75;exitY=1;entryX=0.5;entryY=0;rounded=0;" parent="1" source="t7g00nan9s0jNHVQrBZP-456" target="t7g00nan9s0jNHVQrBZP-401" edge="1">
          <mxGeometry relative="1" as="geometry">
            <Array as="points">
              <mxPoint x="1413" y="1090" />
            </Array>
          </mxGeometry>
        </mxCell>
        <mxCell id="t7g00nan9s0jNHVQrBZP-800" value="&quot;extends&quot;" style="curved=1;startArrow=none;endArrow=block;endSize=16;endFill=0;exitX=0.65;exitY=1;entryX=1;entryY=0.44;rounded=0;" parent="1" source="t7g00nan9s0jNHVQrBZP-465" target="t7g00nan9s0jNHVQrBZP-401" edge="1">
          <mxGeometry relative="1" as="geometry">
            <Array as="points">
              <mxPoint x="1930" y="1180" />
            </Array>
          </mxGeometry>
        </mxCell>
        <mxCell id="t7g00nan9s0jNHVQrBZP-802" value="" style="curved=1;startArrow=none;endArrow=block;endSize=16;endFill=0;exitX=1;exitY=0.54;entryX=1;entryY=0.47;rounded=0;" parent="1" source="t7g00nan9s0jNHVQrBZP-439" target="t7g00nan9s0jNHVQrBZP-592" edge="1">
          <mxGeometry relative="1" as="geometry">
            <Array as="points" />
            <mxPoint x="1647" y="266" as="sourcePoint" />
            <mxPoint x="1510" y="1366" as="targetPoint" />
          </mxGeometry>
        </mxCell>
        <mxCell id="t7g00nan9s0jNHVQrBZP-592" value="Ambulance" style="swimlane;fontStyle=1;align=center;verticalAlign=top;childLayout=stackLayout;horizontal=1;startSize=28.266666666666666;horizontalStack=0;resizeParent=1;resizeParentMax=0;resizeLast=0;collapsible=0;marginBottom=0;" parent="1" vertex="1">
          <mxGeometry x="2700" y="1145.87" width="254" height="428.26666666666665" as="geometry" />
        </mxCell>
        <mxCell id="t7g00nan9s0jNHVQrBZP-593" value="+String ambulanceId" style="text;strokeColor=none;fillColor=none;align=left;verticalAlign=top;spacingLeft=4;spacingRight=4;overflow=hidden;rotatable=0;points=[[0,0.5],[1,0.5]];portConstraint=eastwest;" parent="t7g00nan9s0jNHVQrBZP-592" vertex="1">
          <mxGeometry y="28.266666666666666" width="254" height="28" as="geometry" />
        </mxCell>
        <mxCell id="t7g00nan9s0jNHVQrBZP-594" value="+String hospitalId" style="text;strokeColor=none;fillColor=none;align=left;verticalAlign=top;spacingLeft=4;spacingRight=4;overflow=hidden;rotatable=0;points=[[0,0.5],[1,0.5]];portConstraint=eastwest;" parent="t7g00nan9s0jNHVQrBZP-592" vertex="1">
          <mxGeometry y="56.266666666666666" width="254" height="28" as="geometry" />
        </mxCell>
        <mxCell id="t7g00nan9s0jNHVQrBZP-595" value="+String vehicleNumber" style="text;strokeColor=none;fillColor=none;align=left;verticalAlign=top;spacingLeft=4;spacingRight=4;overflow=hidden;rotatable=0;points=[[0,0.5],[1,0.5]];portConstraint=eastwest;" parent="t7g00nan9s0jNHVQrBZP-592" vertex="1">
          <mxGeometry y="84.26666666666667" width="254" height="28" as="geometry" />
        </mxCell>
        <mxCell id="t7g00nan9s0jNHVQrBZP-596" value="+String driverName" style="text;strokeColor=none;fillColor=none;align=left;verticalAlign=top;spacingLeft=4;spacingRight=4;overflow=hidden;rotatable=0;points=[[0,0.5],[1,0.5]];portConstraint=eastwest;" parent="t7g00nan9s0jNHVQrBZP-592" vertex="1">
          <mxGeometry y="112.26666666666667" width="254" height="28" as="geometry" />
        </mxCell>
        <mxCell id="t7g00nan9s0jNHVQrBZP-597" value="+String driverPhone" style="text;strokeColor=none;fillColor=none;align=left;verticalAlign=top;spacingLeft=4;spacingRight=4;overflow=hidden;rotatable=0;points=[[0,0.5],[1,0.5]];portConstraint=eastwest;" parent="t7g00nan9s0jNHVQrBZP-592" vertex="1">
          <mxGeometry y="140.26666666666665" width="254" height="28" as="geometry" />
        </mxCell>
        <mxCell id="t7g00nan9s0jNHVQrBZP-598" value="+AmbulanceStatus status" style="text;strokeColor=none;fillColor=none;align=left;verticalAlign=top;spacingLeft=4;spacingRight=4;overflow=hidden;rotatable=0;points=[[0,0.5],[1,0.5]];portConstraint=eastwest;" parent="t7g00nan9s0jNHVQrBZP-592" vertex="1">
          <mxGeometry y="168.26666666666665" width="254" height="28" as="geometry" />
        </mxCell>
        <mxCell id="t7g00nan9s0jNHVQrBZP-599" value="+Location currentLocation" style="text;strokeColor=none;fillColor=none;align=left;verticalAlign=top;spacingLeft=4;spacingRight=4;overflow=hidden;rotatable=0;points=[[0,0.5],[1,0.5]];portConstraint=eastwest;" parent="t7g00nan9s0jNHVQrBZP-592" vertex="1">
          <mxGeometry y="196.26666666666665" width="254" height="28" as="geometry" />
        </mxCell>
        <mxCell id="t7g00nan9s0jNHVQrBZP-600" value="+String currentPatientId" style="text;strokeColor=none;fillColor=none;align=left;verticalAlign=top;spacingLeft=4;spacingRight=4;overflow=hidden;rotatable=0;points=[[0,0.5],[1,0.5]];portConstraint=eastwest;" parent="t7g00nan9s0jNHVQrBZP-592" vertex="1">
          <mxGeometry y="224.26666666666665" width="254" height="28" as="geometry" />
        </mxCell>
        <mxCell id="t7g00nan9s0jNHVQrBZP-601" value="+Date dispatchedAt" style="text;strokeColor=none;fillColor=none;align=left;verticalAlign=top;spacingLeft=4;spacingRight=4;overflow=hidden;rotatable=0;points=[[0,0.5],[1,0.5]];portConstraint=eastwest;" parent="t7g00nan9s0jNHVQrBZP-592" vertex="1">
          <mxGeometry y="252.26666666666665" width="254" height="28" as="geometry" />
        </mxCell>
        <mxCell id="t7g00nan9s0jNHVQrBZP-602" value="+Date estimatedArrival" style="text;strokeColor=none;fillColor=none;align=left;verticalAlign=top;spacingLeft=4;spacingRight=4;overflow=hidden;rotatable=0;points=[[0,0.5],[1,0.5]];portConstraint=eastwest;" parent="t7g00nan9s0jNHVQrBZP-592" vertex="1">
          <mxGeometry y="280.26666666666665" width="254" height="28" as="geometry" />
        </mxCell>
        <mxCell id="t7g00nan9s0jNHVQrBZP-603" style="line;strokeWidth=1;fillColor=none;align=left;verticalAlign=middle;spacingTop=-1;spacingLeft=3;spacingRight=3;rotatable=0;labelPosition=right;points=[];portConstraint=eastwest;strokeColor=inherit;" parent="t7g00nan9s0jNHVQrBZP-592" vertex="1">
          <mxGeometry y="308.26666666666665" width="254" height="8" as="geometry" />
        </mxCell>
        <mxCell id="t7g00nan9s0jNHVQrBZP-604" value="+dispatch()" style="text;strokeColor=none;fillColor=none;align=left;verticalAlign=top;spacingLeft=4;spacingRight=4;overflow=hidden;rotatable=0;points=[[0,0.5],[1,0.5]];portConstraint=eastwest;" parent="t7g00nan9s0jNHVQrBZP-592" vertex="1">
          <mxGeometry y="316.26666666666665" width="254" height="28" as="geometry" />
        </mxCell>
        <mxCell id="t7g00nan9s0jNHVQrBZP-605" value="+updateLocation()" style="text;strokeColor=none;fillColor=none;align=left;verticalAlign=top;spacingLeft=4;spacingRight=4;overflow=hidden;rotatable=0;points=[[0,0.5],[1,0.5]];portConstraint=eastwest;" parent="t7g00nan9s0jNHVQrBZP-592" vertex="1">
          <mxGeometry y="344.26666666666665" width="254" height="28" as="geometry" />
        </mxCell>
        <mxCell id="t7g00nan9s0jNHVQrBZP-606" value="+markAvailable()" style="text;strokeColor=none;fillColor=none;align=left;verticalAlign=top;spacingLeft=4;spacingRight=4;overflow=hidden;rotatable=0;points=[[0,0.5],[1,0.5]];portConstraint=eastwest;" parent="t7g00nan9s0jNHVQrBZP-592" vertex="1">
          <mxGeometry y="372.26666666666665" width="254" height="28" as="geometry" />
        </mxCell>
        <mxCell id="t7g00nan9s0jNHVQrBZP-607" value="+scheduleMaintenance()" style="text;strokeColor=none;fillColor=none;align=left;verticalAlign=top;spacingLeft=4;spacingRight=4;overflow=hidden;rotatable=0;points=[[0,0.5],[1,0.5]];portConstraint=eastwest;" parent="t7g00nan9s0jNHVQrBZP-592" vertex="1">
          <mxGeometry y="400.26666666666665" width="254" height="28" as="geometry" />
        </mxCell>
      </root>
    </mxGraphModel>
  </diagram>
</mxfile>
